<?xml version="1.0" encoding="utf-8"?>
<!-- Generator: Adobe Illustrator 28.4.1, SVG Export Plug-In . SVG Version: 6.00 Build 0)  -->
<svg version="1.1" xmlns="http://www.w3.org/2000/svg" xmlns:xlink="http://www.w3.org/1999/xlink" x="0px" y="0px"
	 viewBox="0 0 1000 1000" style="enable-background:new 0 0 1000 1000;" xml:space="preserve">
<style type="text/css">
	.st0{fill:#389736;stroke:#0E8D38;stroke-miterlimit:10;}
	.st1{fill:#64B32F;stroke:#0E8D38;stroke-miterlimit:10;}
</style>
<g id="Camada_2">
	<path class="st0" d="M1295.88,1001.85c0,0-61.28-388.3-71.58-388.3s-479.67,0-489.97,0c-0.37,0-0.86,0.53-1.43,1.52
		c-129.52,0-500.89,0-636.8,0c-0.25-0.99-0.47-1.52-0.66-1.52c-5.15,0-240,0-245.15,0s-50.32,388.3-50.32,388.3h139.16
		c-0.23,0.99-0.36,1.52-0.36,1.52h989.44c0,0-0.18-0.53-0.53-1.52H1295.88z"/>
</g>
<g id="Camada_3">
	<path class="st1" d="M138.08,813.15l-31.62,67.18c0,0,90.13,0,63.25,0S138.08,813.15,138.08,813.15z"/>
	<path class="st1" d="M177.72,813.15l-31.62,67.18c0,0,90.13,0,63.25,0S177.72,813.15,177.72,813.15z"/>
	<path class="st1" d="M28.49,824.89l-31.62,67.18c0,0,90.13,0,63.25,0S28.49,824.89,28.49,824.89z"/>
	<path class="st1" d="M49.48,824.89l-31.62,67.18c0,0,90.13,0,63.25,0S49.48,824.89,49.48,824.89z"/>
	<path class="st1" d="M149.23,801.41c0,0,4.71,90.66-26.8,90.66s94.39,0,73.42,0S149.23,801.41,149.23,801.41z"/>
	<path class="st1" d="M57.47,801.41c0,0,4.71,90.66-26.8,90.66s94.39,0,73.42,0S57.47,801.41,57.47,801.41z"/>
	<path class="st1" d="M110.55,801.41c0,0-15.11,90.66-46.62,90.66s82.16,0,61.19,0S110.55,801.41,110.55,801.41z"/>
	<path class="st1" d="M191.46,834.84l-31.62,67.18c0,0,90.13,0,63.25,0S191.46,834.84,191.46,834.84z"/>
	<path class="st1" d="M231.1,834.84l-31.62,67.18c0,0,90.13,0,63.25,0S231.1,834.84,231.1,834.84z"/>
	<path class="st1" d="M81.86,846.58l-31.62,67.18c0,0,90.13,0,63.25,0S81.86,846.58,81.86,846.58z"/>
	<path class="st1" d="M102.85,846.58l-31.62,67.18c0,0,90.13,0,63.25,0S102.85,846.58,102.85,846.58z"/>
	<path class="st1" d="M202.6,823.1c0,0,4.71,90.66-26.8,90.66s94.39,0,73.42,0C228.25,913.76,202.6,823.1,202.6,823.1z"/>
	<path class="st1" d="M110.84,823.1c0,0,4.71,90.66-26.8,90.66s94.39,0,73.42,0S110.84,823.1,110.84,823.1z"/>
	<path class="st1" d="M56.36,823.1c0,0,4.71,90.66-26.8,90.66s94.39,0,73.42,0S56.36,823.1,56.36,823.1z"/>
	<path class="st1" d="M163.92,823.1c0,0-15.11,90.66-46.62,90.66s82.16,0,61.19,0S163.92,823.1,163.92,823.1z"/>
	<path class="st1" d="M70.37,889.16l-23.79,50.55c0,0,67.81,0,47.59,0S70.37,889.16,70.37,889.16z"/>
	<path class="st1" d="M100.19,889.16L76.4,939.71c0,0,67.81,0,47.59,0S100.19,889.16,100.19,889.16z"/>
	<path class="st1" d="M78.75,880.33c0,0,3.54,68.21-20.16,68.21s71.02,0,55.24,0S78.75,880.33,78.75,880.33z"/>
	<path class="st1" d="M49.65,880.33c0,0-11.37,68.21-35.08,68.21s61.82,0,46.04,0S49.65,880.33,49.65,880.33z"/>
	<path class="st1" d="M110.52,905.48l-23.79,50.55c0,0,67.81,0,47.59,0S110.52,905.48,110.52,905.48z"/>
	<path class="st1" d="M140.35,905.48l-23.79,50.55c0,0,67.81,0,47.59,0S140.35,905.48,140.35,905.48z"/>
	<path class="st1" d="M28.07,914.32L4.27,964.86c0,0,67.81,0,47.59,0S28.07,914.32,28.07,914.32z"/>
	<path class="st1" d="M43.86,914.32l-23.79,50.55c0,0,67.81,0,47.59,0S43.86,914.32,43.86,914.32z"/>
	<path class="st1" d="M118.91,896.65c0,0,3.54,68.21-20.16,68.21s71.02,0,55.24,0S118.91,896.65,118.91,896.65z"/>
	<path class="st1" d="M49.87,896.65c0,0,3.54,68.21-20.16,68.21s71.02,0,55.24,0S49.87,896.65,49.87,896.65z"/>
	<path class="st1" d="M89.8,896.65c0,0-11.37,68.21-35.08,68.21s61.82,0,46.04,0S89.8,896.65,89.8,896.65z"/>
	<path class="st1" d="M243.13,890.51l23.79,50.55c0,0-67.81,0-47.59,0S243.13,890.51,243.13,890.51z"/>
	<path class="st1" d="M213.3,890.51l23.79,50.55c0,0-67.81,0-47.59,0S213.3,890.51,213.3,890.51z"/>
	<path class="st1" d="M325.58,899.34l23.79,50.55c0,0-67.81,0-47.59,0C322.01,949.89,325.58,899.34,325.58,899.34z"/>
	<path class="st1" d="M309.8,899.34l23.79,50.55c0,0-67.81,0-47.59,0C306.23,949.89,309.8,899.34,309.8,899.34z"/>
	<path class="st1" d="M234.75,881.68c0,0-3.54,68.21,20.16,68.21s-71.02,0-55.24,0S234.75,881.68,234.75,881.68z"/>
	<path class="st1" d="M303.78,881.68c0,0-3.54,68.21,20.16,68.21s-71.02,0-55.24,0S303.78,881.68,303.78,881.68z"/>
	<path class="st1" d="M344.77,881.68c0,0-3.54,68.21,20.16,68.21c23.71,0-71.02,0-55.24,0S344.77,881.68,344.77,881.68z"/>
	<path class="st1" d="M263.85,881.68c0,0,11.37,68.21,35.08,68.21c23.71,0-61.82,0-46.04,0S263.85,881.68,263.85,881.68z"/>
	<path class="st1" d="M202.97,906.83l23.79,50.55c0,0-67.81,0-47.59,0S202.97,906.83,202.97,906.83z"/>
	<path class="st1" d="M173.15,906.83l23.79,50.55c0,0-67.81,0-47.59,0S173.15,906.83,173.15,906.83z"/>
	<path class="st1" d="M285.43,915.66l23.79,50.55c0,0-67.81,0-47.59,0S285.43,915.66,285.43,915.66z"/>
	<path class="st1" d="M269.64,915.66l23.79,50.55c0,0-67.81,0-47.59,0S269.64,915.66,269.64,915.66z"/>
	<path class="st1" d="M194.59,898c0,0-3.54,68.21,20.16,68.21s-71.02,0-55.24,0S194.59,898,194.59,898z"/>
	<path class="st1" d="M263.63,898c0,0-3.54,68.21,20.16,68.21s-71.02,0-55.24,0S263.63,898,263.63,898z"/>
	<path class="st1" d="M304.62,898c0,0-3.54,68.21,20.16,68.21c23.71,0-71.02,0-55.24,0S304.62,898,304.62,898z"/>
	<path class="st1" d="M223.69,898c0,0,11.37,68.21,35.08,68.21s-61.82,0-46.04,0S223.69,898,223.69,898z"/>
	<path class="st1" d="M58.41,934.71l-25.49,54.15c0,0,72.64,0,50.98,0S58.41,934.71,58.41,934.71z"/>
	<path class="st1" d="M75.32,934.71l-25.49,54.15c0,0,72.64,0,50.98,0S75.32,934.71,75.32,934.71z"/>
	<path class="st1" d="M155.72,915.78c0,0,3.79,73.07-21.6,73.07s76.08,0,59.18,0S155.72,915.78,155.72,915.78z"/>
	<path class="st1" d="M81.76,915.78c0,0,3.79,73.07-21.6,73.07s76.08,0,59.18,0S81.76,915.78,81.76,915.78z"/>
	<path class="st1" d="M37.85,915.78c0,0,3.79,73.07-21.6,73.07s76.08,0,59.18,0S37.85,915.78,37.85,915.78z"/>
	<path class="st1" d="M124.54,915.78c0,0-12.18,73.07-37.58,73.07s66.22,0,49.32,0S124.54,915.78,124.54,915.78z"/>
	<path class="st1" d="M189.76,942.73l-25.49,54.15c0,0,72.64,0,50.98,0S189.76,942.73,189.76,942.73z"/>
	<path class="st1" d="M221.71,942.73l-25.49,54.15c0,0,72.64,0,50.98,0S221.71,942.73,221.71,942.73z"/>
	<path class="st1" d="M101.43,952.19l-25.49,54.15c0,0,72.64,0,50.98,0S101.43,952.19,101.43,952.19z"/>
	<path class="st1" d="M118.34,952.19l-25.49,54.15c0,0,72.64,0,50.98,0S118.34,952.19,118.34,952.19z"/>
	<path class="st1" d="M198.74,933.26c0,0,3.79,73.07-21.6,73.07s76.08,0,59.18,0S198.74,933.26,198.74,933.26z"/>
	<path class="st1" d="M124.78,933.26c0,0,3.79,73.07-21.6,73.07s76.08,0,59.18,0S124.78,933.26,124.78,933.26z"/>
	<path class="st1" d="M80.87,933.26c0,0,3.79,73.07-21.6,73.07s76.08,0,59.18,0S80.87,933.26,80.87,933.26z"/>
	<path class="st1" d="M167.56,933.26c0,0-12.18,73.07-37.58,73.07s66.22,0,49.32,0S167.56,933.26,167.56,933.26z"/>
	<path class="st1" d="M499.95,806.62l-31.62,67.18c0,0,90.13,0,63.25,0C504.69,873.8,499.95,806.62,499.95,806.62z"/>
	<path class="st1" d="M539.59,806.62l-31.62,67.18c0,0,90.13,0,63.25,0C544.33,873.8,539.59,806.62,539.59,806.62z"/>
	<path class="st1" d="M390.35,818.36l-31.62,67.18c0,0,90.13,0,63.25,0S390.35,818.36,390.35,818.36z"/>
	<path class="st1" d="M411.34,818.36l-31.62,67.18c0,0,90.13,0,63.25,0C416.09,885.54,411.34,818.36,411.34,818.36z"/>
	<path class="st1" d="M511.09,794.88c0,0,4.71,90.66-26.8,90.66s94.39,0,73.42,0C536.74,885.54,511.09,794.88,511.09,794.88z"/>
	<path class="st1" d="M419.33,794.88c0,0,4.71,90.66-26.8,90.66s94.39,0,73.42,0S419.33,794.88,419.33,794.88z"/>
	<path class="st1" d="M364.85,794.88c0,0,4.71,90.66-26.8,90.66s94.39,0,73.42,0C390.5,885.54,364.85,794.88,364.85,794.88z"/>
	<path class="st1" d="M472.41,794.88c0,0-15.11,90.66-46.62,90.66s82.16,0,61.19,0C466,885.54,472.41,794.88,472.41,794.88z"/>
	<path class="st1" d="M553.32,828.31l-31.62,67.18c0,0,90.13,0,63.25,0C558.06,895.49,553.32,828.31,553.32,828.31z"/>
	<path class="st1" d="M592.96,828.31l-31.62,67.18c0,0,90.13,0,63.25,0C597.7,895.49,592.96,828.31,592.96,828.31z"/>
	<path class="st1" d="M443.73,840.05l-31.62,67.18c0,0,90.13,0,63.25,0S443.73,840.05,443.73,840.05z"/>
	<path class="st1" d="M464.71,840.05l-31.62,67.18c0,0,90.13,0,63.25,0S464.71,840.05,464.71,840.05z"/>
	<path class="st1" d="M564.46,816.57c0,0,4.71,90.66-26.8,90.66s94.39,0,73.42,0C590.11,907.23,564.46,816.57,564.46,816.57z"/>
	<path class="st1" d="M472.7,816.57c0,0,4.71,90.66-26.8,90.66s94.39,0,73.42,0C498.35,907.23,472.7,816.57,472.7,816.57z"/>
	<path class="st1" d="M418.22,816.57c0,0,4.71,90.66-26.8,90.66s94.39,0,73.42,0C443.87,907.23,418.22,816.57,418.22,816.57z"/>
	<path class="st1" d="M525.78,816.57c0,0-15.11,90.66-46.62,90.66s82.16,0,61.19,0C519.38,907.23,525.78,816.57,525.78,816.57z"/>
	<path class="st1" d="M432.23,882.63l-23.79,50.55c0,0,67.81,0,47.59,0C435.8,933.18,432.23,882.63,432.23,882.63z"/>
	<path class="st1" d="M462.05,882.63l-23.79,50.55c0,0,67.81,0,47.59,0C465.62,933.18,462.05,882.63,462.05,882.63z"/>
	<path class="st1" d="M349.77,891.47l-23.79,50.55c0,0,67.81,0,47.59,0C353.34,942.01,349.77,891.47,349.77,891.47z"/>
	<path class="st1" d="M365.56,891.47l-23.79,50.55c0,0,67.81,0,47.59,0C369.13,942.01,365.56,891.47,365.56,891.47z"/>
	<path class="st1" d="M440.61,873.8c0,0,3.54,68.21-20.16,68.21c-23.71,0,71.02,0,55.24,0C459.91,942.01,440.61,873.8,440.61,873.8z
		"/>
	<path class="st1" d="M371.57,873.8c0,0,3.54,68.21-20.16,68.21s71.02,0,55.24,0S371.57,873.8,371.57,873.8z"/>
	<path class="st1" d="M330.58,873.8c0,0,3.54,68.21-20.16,68.21s71.02,0,55.24,0S330.58,873.8,330.58,873.8z"/>
	<path class="st1" d="M411.51,873.8c0,0-11.37,68.21-35.08,68.21c-23.71,0,61.82,0,46.04,0S411.51,873.8,411.51,873.8z"/>
	<path class="st1" d="M472.39,898.95l-23.79,50.55c0,0,67.81,0,47.59,0S472.39,898.95,472.39,898.95z"/>
	<path class="st1" d="M502.21,898.95l-23.79,50.55c0,0,67.81,0,47.59,0S502.21,898.95,502.21,898.95z"/>
	<path class="st1" d="M389.93,907.79l-23.79,50.55c0,0,67.81,0,47.59,0S389.93,907.79,389.93,907.79z"/>
	<path class="st1" d="M405.72,907.79l-23.79,50.55c0,0,67.81,0,47.59,0C409.29,958.33,405.72,907.79,405.72,907.79z"/>
	<path class="st1" d="M480.77,890.12c0,0,3.54,68.21-20.16,68.21c-23.71,0,71.02,0,55.24,0
		C500.07,958.33,480.77,890.12,480.77,890.12z"/>
	<path class="st1" d="M411.73,890.12c0,0,3.54,68.21-20.16,68.21c-23.71,0,71.02,0,55.24,0S411.73,890.12,411.73,890.12z"/>
	<path class="st1" d="M370.74,890.12c0,0,3.54,68.21-20.16,68.21s71.02,0,55.24,0S370.74,890.12,370.74,890.12z"/>
	<path class="st1" d="M451.67,890.12c0,0-11.37,68.21-35.08,68.21s61.82,0,46.04,0S451.67,890.12,451.67,890.12z"/>
	<path class="st1" d="M604.99,883.98l23.79,50.55c0,0-67.81,0-47.59,0S604.99,883.98,604.99,883.98z"/>
	<path class="st1" d="M575.17,883.98l23.79,50.55c0,0-67.81,0-47.59,0C571.59,934.53,575.17,883.98,575.17,883.98z"/>
	<path class="st1" d="M687.45,892.82l23.79,50.55c0,0-67.81,0-47.59,0C683.88,943.36,687.45,892.82,687.45,892.82z"/>
	<path class="st1" d="M671.66,892.82l23.79,50.55c0,0-67.81,0-47.59,0S671.66,892.82,671.66,892.82z"/>
	<path class="st1" d="M596.61,875.15c0,0-3.54,68.21,20.16,68.21s-71.02,0-55.24,0S596.61,875.15,596.61,875.15z"/>
	<path class="st1" d="M665.65,875.15c0,0-3.54,68.21,20.16,68.21s-71.02,0-55.24,0S665.65,875.15,665.65,875.15z"/>
	<path class="st1" d="M706.64,875.15c0,0-3.54,68.21,20.16,68.21s-71.02,0-55.24,0C687.34,943.36,706.64,875.15,706.64,875.15z"/>
	<path class="st1" d="M625.71,875.15c0,0,11.37,68.21,35.08,68.21c23.71,0-61.82,0-46.04,0S625.71,875.15,625.71,875.15z"/>
	<path class="st1" d="M564.83,900.3l23.79,50.55c0,0-67.81,0-47.59,0C561.26,950.85,564.83,900.3,564.83,900.3z"/>
	<path class="st1" d="M535.01,900.3l23.79,50.55c0,0-67.81,0-47.59,0C531.44,950.85,535.01,900.3,535.01,900.3z"/>
	<path class="st1" d="M647.29,909.13l23.79,50.55c0,0-67.81,0-47.59,0S647.29,909.13,647.29,909.13z"/>
	<path class="st1" d="M631.5,909.13l23.79,50.55c0,0-67.81,0-47.59,0C627.93,959.68,631.5,909.13,631.5,909.13z"/>
	<path class="st1" d="M556.45,891.47c0,0-3.54,68.21,20.16,68.21c23.71,0-71.02,0-55.24,0S556.45,891.47,556.45,891.47z"/>
	<path class="st1" d="M625.49,891.47c0,0-3.54,68.21,20.16,68.21s-71.02,0-55.24,0S625.49,891.47,625.49,891.47z"/>
	<path class="st1" d="M666.48,891.47c0,0-3.54,68.21,20.16,68.21c23.71,0-71.02,0-55.24,0S666.48,891.47,666.48,891.47z"/>
	<path class="st1" d="M585.55,891.47c0,0,11.37,68.21,35.08,68.21s-61.82,0-46.04,0S585.55,891.47,585.55,891.47z"/>
	<path class="st1" d="M420.27,928.18l-25.49,54.15c0,0,72.64,0,50.98,0S420.27,928.18,420.27,928.18z"/>
	<path class="st1" d="M437.19,928.18l-25.49,54.15c0,0,72.64,0,50.98,0S437.19,928.18,437.19,928.18z"/>
	<path class="st1" d="M517.58,909.25c0,0,3.79,73.07-21.6,73.07c-25.39,0,76.08,0,59.18,0
		C538.25,982.33,517.58,909.25,517.58,909.25z"/>
	<path class="st1" d="M443.63,909.25c0,0,3.79,73.07-21.6,73.07s76.08,0,59.18,0C464.3,982.33,443.63,909.25,443.63,909.25z"/>
	<path class="st1" d="M399.72,909.25c0,0,3.79,73.07-21.6,73.07s76.08,0,59.18,0C420.39,982.33,399.72,909.25,399.72,909.25z"/>
	<path class="st1" d="M486.41,909.25c0,0-12.18,73.07-37.58,73.07c-25.39,0,66.22,0,49.32,0S486.41,909.25,486.41,909.25z"/>
	<path class="st1" d="M551.62,936.2l-25.49,54.15c0,0,72.64,0,50.98,0S551.62,936.2,551.62,936.2z"/>
	<path class="st1" d="M583.57,936.2l-25.49,54.15c0,0,72.64,0,50.98,0S583.57,936.2,583.57,936.2z"/>
	<path class="st1" d="M463.29,945.66l-25.49,54.15c0,0,72.64,0,50.98,0C467.11,999.81,463.29,945.66,463.29,945.66z"/>
	<path class="st1" d="M480.2,945.66l-25.49,54.15c0,0,72.64,0,50.98,0C484.03,999.81,480.2,945.66,480.2,945.66z"/>
	<path class="st1" d="M560.6,926.74c0,0,3.79,73.07-21.6,73.07c-25.39,0,76.08,0,59.18,0S560.6,926.74,560.6,926.74z"/>
	<path class="st1" d="M486.64,926.74c0,0,3.79,73.07-21.6,73.07c-25.39,0,76.08,0,59.18,0
		C507.32,999.81,486.64,926.74,486.64,926.74z"/>
	<path class="st1" d="M442.73,926.74c0,0,3.79,73.07-21.6,73.07c-25.39,0,76.08,0,59.18,0S442.73,926.74,442.73,926.74z"/>
	<path class="st1" d="M529.42,926.74c0,0-12.18,73.07-37.58,73.07c-25.39,0,66.22,0,49.32,0S529.42,926.74,529.42,926.74z"/>
	<path class="st1" d="M863.2,810.27l-31.62,67.18c0,0,90.13,0,63.25,0C867.95,877.45,863.2,810.27,863.2,810.27z"/>
	<path class="st1" d="M902.84,810.27l-31.62,67.18c0,0,90.13,0,63.25,0C907.59,877.45,902.84,810.27,902.84,810.27z"/>
	<path class="st1" d="M753.61,822.01l-31.62,67.18c0,0,90.13,0,63.25,0C758.36,889.19,753.61,822.01,753.61,822.01z"/>
	<path class="st1" d="M774.6,822.01l-31.62,67.18c0,0,90.13,0,63.25,0C779.34,889.19,774.6,822.01,774.6,822.01z"/>
	<path class="st1" d="M874.34,798.53c0,0,4.71,90.66-26.8,90.66s94.39,0,73.42,0C899.99,889.19,874.34,798.53,874.34,798.53z"/>
	<path class="st1" d="M782.59,798.53c0,0,4.71,90.66-26.8,90.66s94.39,0,73.42,0C808.24,889.19,782.59,798.53,782.59,798.53z"/>
	<path class="st1" d="M728.11,798.53c0,0,4.71,90.66-26.8,90.66s94.39,0,73.42,0S728.11,798.53,728.11,798.53z"/>
	<path class="st1" d="M835.67,798.53c0,0-15.11,90.66-46.62,90.66s82.16,0,61.19,0C829.26,889.19,835.67,798.53,835.67,798.53z"/>
	<path class="st1" d="M916.58,831.96l-31.62,67.18c0,0,90.13,0,63.25,0C921.32,899.14,916.58,831.96,916.58,831.96z"/>
	<path class="st1" d="M956.22,831.96l-31.62,67.18c0,0,90.13,0,63.25,0S956.22,831.96,956.22,831.96z"/>
	<path class="st1" d="M806.98,843.7l-31.62,67.18c0,0,90.13,0,63.25,0C811.73,910.88,806.98,843.7,806.98,843.7z"/>
	<path class="st1" d="M827.97,843.7l-31.62,67.18c0,0,90.13,0,63.25,0S827.97,843.7,827.97,843.7z"/>
	<path class="st1" d="M927.72,820.22c0,0,4.71,90.66-26.8,90.66s94.39,0,73.42,0S927.72,820.22,927.72,820.22z"/>
	<path class="st1" d="M835.96,820.22c0,0,4.71,90.66-26.8,90.66s94.39,0,73.42,0C861.61,910.88,835.96,820.22,835.96,820.22z"/>
	<path class="st1" d="M781.48,820.22c0,0,4.71,90.66-26.8,90.66s94.39,0,73.42,0C807.13,910.88,781.48,820.22,781.48,820.22z"/>
	<path class="st1" d="M889.04,820.22c0,0-15.11,90.66-46.62,90.66s82.16,0,61.19,0S889.04,820.22,889.04,820.22z"/>
	<path class="st1" d="M795.49,886.29l-23.79,50.55c0,0,67.81,0,47.59,0S795.49,886.29,795.49,886.29z"/>
	<path class="st1" d="M825.31,886.29l-23.79,50.55c0,0,67.81,0,47.59,0S825.31,886.29,825.31,886.29z"/>
	<path class="st1" d="M713.03,895.12l-23.79,50.55c0,0,67.81,0,47.59,0S713.03,895.12,713.03,895.12z"/>
	<path class="st1" d="M728.82,895.12l-23.79,50.55c0,0,67.81,0,47.59,0S728.82,895.12,728.82,895.12z"/>
	<path class="st1" d="M803.87,877.45c0,0,3.54,68.21-20.16,68.21s71.02,0,55.24,0C823.17,945.67,803.87,877.45,803.87,877.45z"/>
	<path class="st1" d="M734.83,877.45c0,0,3.54,68.21-20.16,68.21c-23.71,0,71.02,0,55.24,0S734.83,877.45,734.83,877.45z"/>
	<path class="st1" d="M693.84,877.45c0,0,3.54,68.21-20.16,68.21s71.02,0,55.24,0S693.84,877.45,693.84,877.45z"/>
	<path class="st1" d="M774.77,877.45c0,0-11.37,68.21-35.08,68.21s61.82,0,46.04,0S774.77,877.45,774.77,877.45z"/>
	<path class="st1" d="M835.64,902.61l-23.79,50.55c0,0,67.81,0,47.59,0C839.21,953.15,835.64,902.61,835.64,902.61z"/>
	<path class="st1" d="M865.47,902.61l-23.79,50.55c0,0,67.81,0,47.59,0C869.04,953.15,865.47,902.61,865.47,902.61z"/>
	<path class="st1" d="M753.19,911.44l-23.79,50.55c0,0,67.81,0,47.59,0C756.76,961.99,753.19,911.44,753.19,911.44z"/>
	<path class="st1" d="M768.98,911.44l-23.79,50.55c0,0,67.81,0,47.59,0C772.55,961.99,768.98,911.44,768.98,911.44z"/>
	<path class="st1" d="M844.03,893.77c0,0,3.54,68.21-20.16,68.21s71.02,0,55.24,0S844.03,893.77,844.03,893.77z"/>
	<path class="st1" d="M774.99,893.77c0,0,3.54,68.21-20.16,68.21s71.02,0,55.24,0C794.29,961.99,774.99,893.77,774.99,893.77z"/>
	<path class="st1" d="M734,893.77c0,0,3.54,68.21-20.16,68.21s71.02,0,55.24,0S734,893.77,734,893.77z"/>
	<path class="st1" d="M814.92,893.77c0,0-11.37,68.21-35.08,68.21s61.82,0,46.04,0S814.92,893.77,814.92,893.77z"/>
	<path class="st1" d="M968.25,887.63l23.79,50.55c0,0-67.81,0-47.59,0C964.68,938.18,968.25,887.63,968.25,887.63z"/>
	<path class="st1" d="M938.42,887.63l23.79,50.55c0,0-67.81,0-47.59,0C934.85,938.18,938.42,887.63,938.42,887.63z"/>
	<path class="st1" d="M959.86,878.8c0,0-3.54,68.21,20.16,68.21c23.71,0-71.02,0-55.24,0S959.86,878.8,959.86,878.8z"/>
	<path class="st1" d="M928.09,903.95l23.79,50.55c0,0-67.81,0-47.59,0S928.09,903.95,928.09,903.95z"/>
	<path class="st1" d="M898.26,903.95l23.79,50.55c0,0-67.81,0-47.59,0S898.26,903.95,898.26,903.95z"/>
	<path class="st1" d="M919.71,895.12c0,0-3.54,68.21,20.16,68.21s-71.02,0-55.24,0C900.41,963.33,919.71,895.12,919.71,895.12z"/>
	<path class="st1" d="M948.81,895.12c0,0,11.37,68.21,35.08,68.21s-61.82,0-46.04,0S948.81,895.12,948.81,895.12z"/>
	<path class="st1" d="M783.53,931.83l-25.49,54.15c0,0,72.64,0,50.98,0S783.53,931.83,783.53,931.83z"/>
	<path class="st1" d="M800.44,931.83l-25.49,54.15c0,0,72.64,0,50.98,0C804.27,985.98,800.44,931.83,800.44,931.83z"/>
	<path class="st1" d="M880.84,912.91c0,0,3.79,73.07-21.6,73.07c-25.39,0,76.08,0,59.18,0S880.84,912.91,880.84,912.91z"/>
	<path class="st1" d="M806.88,912.91c0,0,3.79,73.07-21.6,73.07c-25.39,0,76.08,0,59.18,0
		C827.56,985.98,806.88,912.91,806.88,912.91z"/>
	<path class="st1" d="M762.97,912.91c0,0,3.79,73.07-21.6,73.07c-25.39,0,76.08,0,59.18,0
		C783.65,985.98,762.97,912.91,762.97,912.91z"/>
	<path class="st1" d="M849.66,912.91c0,0-12.18,73.07-37.58,73.07c-25.39,0,66.22,0,49.32,0S849.66,912.91,849.66,912.91z"/>
	<path class="st1" d="M914.88,939.85L889.39,994c0,0,72.64,0,50.98,0S914.88,939.85,914.88,939.85z"/>
	<path class="st1" d="M946.82,939.85L921.34,994c0,0,72.64,0,50.98,0C950.65,994,946.82,939.85,946.82,939.85z"/>
	<path class="st1" d="M826.55,949.31l-25.49,54.15c0,0,72.64,0,50.98,0S826.55,949.31,826.55,949.31z"/>
	<path class="st1" d="M843.46,949.31l-25.49,54.15c0,0,72.64,0,50.98,0S843.46,949.31,843.46,949.31z"/>
	<path class="st1" d="M923.86,930.39c0,0,3.79,73.07-21.6,73.07c-25.39,0,76.08,0,59.18,0
		C944.53,1003.46,923.86,930.39,923.86,930.39z"/>
	<path class="st1" d="M849.9,930.39c0,0,3.79,73.07-21.6,73.07c-25.39,0,76.08,0,59.18,0S849.9,930.39,849.9,930.39z"/>
	<path class="st1" d="M805.99,930.39c0,0,3.79,73.07-21.6,73.07c-25.39,0,76.08,0,59.18,0S805.99,930.39,805.99,930.39z"/>
	<path class="st1" d="M892.68,930.39c0,0-12.18,73.07-37.58,73.07c-25.39,0,66.22,0,49.32,0S892.68,930.39,892.68,930.39z"/>
	<path class="st1" d="M108.22,578.61l-23.79,50.55c0,0,67.81,0,47.59,0S108.22,578.61,108.22,578.61z"/>
	<path class="st1" d="M138.04,578.61l-23.79,50.55c0,0,67.81,0,47.59,0S138.04,578.61,138.04,578.61z"/>
	<path class="st1" d="M25.76,587.44L1.97,637.99c0,0,67.81,0,47.59,0S25.76,587.44,25.76,587.44z"/>
	<path class="st1" d="M41.55,587.44l-23.79,50.55c0,0,67.81,0,47.59,0S41.55,587.44,41.55,587.44z"/>
	<path class="st1" d="M116.6,569.77c0,0,3.54,68.21-20.16,68.21s71.02,0,55.24,0S116.6,569.77,116.6,569.77z"/>
	<path class="st1" d="M47.56,569.77c0,0,3.54,68.21-20.16,68.21s71.02,0,55.24,0S47.56,569.77,47.56,569.77z"/>
	<path class="st1" d="M6.57,569.77c0,0,3.54,68.21-20.16,68.21s71.02,0,55.24,0S6.57,569.77,6.57,569.77z"/>
	<path class="st1" d="M87.5,569.77c0,0-11.37,68.21-35.08,68.21s61.82,0,46.04,0S87.5,569.77,87.5,569.77z"/>
	<path class="st1" d="M148.38,594.93l-23.79,50.55c0,0,67.81,0,47.59,0S148.38,594.93,148.38,594.93z"/>
	<path class="st1" d="M178.2,594.93l-23.79,50.55c0,0,67.81,0,47.59,0S178.2,594.93,178.2,594.93z"/>
	<path class="st1" d="M65.92,603.76l-23.79,50.55c0,0,67.81,0,47.59,0S65.92,603.76,65.92,603.76z"/>
	<path class="st1" d="M81.71,603.76l-23.79,50.55c0,0,67.81,0,47.59,0S81.71,603.76,81.71,603.76z"/>
	<path class="st1" d="M156.76,586.09c0,0,3.54,68.21-20.16,68.21s71.02,0,55.24,0S156.76,586.09,156.76,586.09z"/>
	<path class="st1" d="M87.72,586.09c0,0,3.54,68.21-20.16,68.21s71.02,0,55.24,0S87.72,586.09,87.72,586.09z"/>
	<path class="st1" d="M46.73,586.09c0,0,3.54,68.21-20.16,68.21s71.02,0,55.24,0S46.73,586.09,46.73,586.09z"/>
	<path class="st1" d="M127.66,586.09c0,0-11.37,68.21-35.08,68.21s61.82,0,46.04,0S127.66,586.09,127.66,586.09z"/>
	<path class="st1" d="M258.98,579.96l23.79,50.55c0,0-67.81,0-47.59,0S258.98,579.96,258.98,579.96z"/>
	<path class="st1" d="M229.15,579.96l23.79,50.55c0,0-67.81,0-47.59,0S229.15,579.96,229.15,579.96z"/>
	<path class="st1" d="M341.44,588.79l23.79,50.55c0,0-67.81,0-47.59,0C337.87,639.34,341.44,588.79,341.44,588.79z"/>
	<path class="st1" d="M325.65,588.79l23.79,50.55c0,0-67.81,0-47.59,0C322.08,639.34,325.65,588.79,325.65,588.79z"/>
	<path class="st1" d="M250.6,571.12c0,0-3.54,68.21,20.16,68.21s-71.02,0-55.24,0S250.6,571.12,250.6,571.12z"/>
	<path class="st1" d="M319.63,571.12c0,0-3.54,68.21,20.16,68.21s-71.02,0-55.24,0S319.63,571.12,319.63,571.12z"/>
	<path class="st1" d="M360.62,571.12c0,0-3.54,68.21,20.16,68.21c23.71,0-71.02,0-55.24,0S360.62,571.12,360.62,571.12z"/>
	<path class="st1" d="M279.7,571.12c0,0,11.37,68.21,35.08,68.21c23.71,0-61.82,0-46.04,0S279.7,571.12,279.7,571.12z"/>
	<path class="st1" d="M240.82,596.28l23.79,50.55c0,0-67.81,0-47.59,0S240.82,596.28,240.82,596.28z"/>
	<path class="st1" d="M211,596.28l23.79,50.55c0,0-67.81,0-47.59,0S211,596.28,211,596.28z"/>
	<path class="st1" d="M301.28,605.11l23.79,50.55c0,0-67.81,0-47.59,0C297.71,655.65,301.28,605.11,301.28,605.11z"/>
	<path class="st1" d="M285.49,605.11l23.79,50.55c0,0-67.81,0-47.59,0C281.92,655.65,285.49,605.11,285.49,605.11z"/>
	<path class="st1" d="M232.44,587.44c0,0-3.54,68.21,20.16,68.21s-71.02,0-55.24,0S232.44,587.44,232.44,587.44z"/>
	<path class="st1" d="M279.48,587.44c0,0-3.54,68.21,20.16,68.21s-71.02,0-55.24,0S279.48,587.44,279.48,587.44z"/>
	<path class="st1" d="M320.47,587.44c0,0-3.54,68.21,20.16,68.21c23.71,0-71.02,0-55.24,0
		C301.17,655.65,320.47,587.44,320.47,587.44z"/>
	<path class="st1" d="M239.54,587.44c0,0,11.37,68.21,35.08,68.21s-61.82,0-46.04,0S239.54,587.44,239.54,587.44z"/>
	<path class="st1" d="M96.26,624.15L70.77,678.3c0,0,72.64,0,50.98,0S96.26,624.15,96.26,624.15z"/>
	<path class="st1" d="M113.17,624.15L87.69,678.3c0,0,72.64,0,50.98,0S113.17,624.15,113.17,624.15z"/>
	<path class="st1" d="M193.57,605.23c0,0,3.79,73.07-21.6,73.07s76.08,0,59.18,0S193.57,605.23,193.57,605.23z"/>
	<path class="st1" d="M119.61,605.23c0,0,3.79,73.07-21.6,73.07s76.08,0,59.18,0S119.61,605.23,119.61,605.23z"/>
	<path class="st1" d="M75.71,605.23c0,0,3.79,73.07-21.6,73.07s76.08,0,59.18,0S75.71,605.23,75.71,605.23z"/>
	<path class="st1" d="M162.4,605.23c0,0-12.18,73.07-37.58,73.07s66.22,0,49.32,0S162.4,605.23,162.4,605.23z"/>
	<path class="st1" d="M227.61,632.17l-25.49,54.15c0,0,72.64,0,50.98,0S227.61,632.17,227.61,632.17z"/>
	<path class="st1" d="M237.56,632.17l-25.49,54.15c0,0,72.64,0,50.98,0S237.56,632.17,237.56,632.17z"/>
	<path class="st1" d="M139.28,641.64l-25.49,54.15c0,0,72.64,0,50.98,0S139.28,641.64,139.28,641.64z"/>
	<path class="st1" d="M156.19,641.64l-25.49,54.15c0,0,72.64,0,50.98,0S156.19,641.64,156.19,641.64z"/>
	<path class="st1" d="M214.59,622.71c0,0,3.79,73.07-21.6,73.07s76.08,0,59.18,0S214.59,622.71,214.59,622.71z"/>
	<path class="st1" d="M162.63,622.71c0,0,3.79,73.07-21.6,73.07s76.08,0,59.18,0S162.63,622.71,162.63,622.71z"/>
	<path class="st1" d="M118.72,622.71c0,0,3.79,73.07-21.6,73.07s76.08,0,59.18,0S118.72,622.71,118.72,622.71z"/>
	<path class="st1" d="M205.41,622.71c0,0-12.18,73.07-37.58,73.07s66.22,0,49.32,0S205.41,622.71,205.41,622.71z"/>
	<path class="st1" d="M130.01,675.96l-19.18,40.74c0,0,54.66,0,38.36,0S130.01,675.96,130.01,675.96z"/>
	<path class="st1" d="M154.05,675.96l-19.18,40.74c0,0,54.66,0,38.36,0S154.05,675.96,154.05,675.96z"/>
	<path class="st1" d="M41.55,683.08l-19.18,40.74c0,0,54.66,0,38.36,0S41.55,683.08,41.55,683.08z"/>
	<path class="st1" d="M54.28,683.08L35.1,723.82c0,0,54.66,0,38.36,0S54.28,683.08,54.28,683.08z"/>
	<path class="st1" d="M136.77,668.84c0,0,2.85,54.98-16.25,54.98s57.24,0,44.52,0S136.77,668.84,136.77,668.84z"/>
	<path class="st1" d="M81.12,668.84c0,0,2.85,54.98-16.25,54.98s57.24,0,44.52,0S81.12,668.84,81.12,668.84z"/>
	<path class="st1" d="M48.09,668.84c0,0,2.85,54.98-16.25,54.98s57.24,0,44.52,0S48.09,668.84,48.09,668.84z"/>
	<path class="st1" d="M113.31,668.84c0,0-9.16,54.98-28.27,54.98s49.82,0,37.11,0S113.31,668.84,113.31,668.84z"/>
	<path class="st1" d="M140.38,689.11l-19.18,40.74c0,0,54.66,0,38.36,0S140.38,689.11,140.38,689.11z"/>
	<path class="st1" d="M164.42,689.11l-19.18,40.74c0,0,54.66,0,38.36,0S164.42,689.11,164.42,689.11z"/>
	<path class="st1" d="M73.92,696.23l-19.18,40.74c0,0,54.66,0,38.36,0S73.92,696.23,73.92,696.23z"/>
	<path class="st1" d="M86.64,696.23l-19.18,40.74c0,0,54.66,0,38.36,0S86.64,696.23,86.64,696.23z"/>
	<path class="st1" d="M169.13,681.99c0,0,2.85,54.98-16.25,54.98s57.24,0,44.52,0S169.13,681.99,169.13,681.99z"/>
	<path class="st1" d="M113.49,681.99c0,0,2.85,54.98-16.25,54.98s57.24,0,44.52,0C129.04,736.97,113.49,681.99,113.49,681.99z"/>
	<path class="st1" d="M80.45,681.99c0,0,2.85,54.98-16.25,54.98s57.24,0,44.52,0S80.45,681.99,80.45,681.99z"/>
	<path class="st1" d="M145.68,681.99c0,0-9.16,54.98-28.27,54.98s49.82,0,37.11,0S145.68,681.99,145.68,681.99z"/>
	<path class="st1" d="M247.25,677.04l19.18,40.74c0,0-54.66,0-38.36,0S247.25,677.04,247.25,677.04z"/>
	<path class="st1" d="M223.22,677.04l19.18,40.74c0,0-54.66,0-38.36,0S223.22,677.04,223.22,677.04z"/>
	<path class="st1" d="M313.71,684.16l19.18,40.74c0,0-54.66,0-38.36,0C310.83,724.9,313.71,684.16,313.71,684.16z"/>
	<path class="st1" d="M300.99,684.16l19.18,40.74c0,0-54.66,0-38.36,0S300.99,684.16,300.99,684.16z"/>
	<path class="st1" d="M240.5,669.92c0,0-2.85,54.98,16.25,54.98c19.11,0-57.24,0-44.52,0S240.5,669.92,240.5,669.92z"/>
	<path class="st1" d="M296.14,669.92c0,0-2.85,54.98,16.25,54.98c19.11,0-57.24,0-44.52,0C280.59,724.9,296.14,669.92,296.14,669.92
		z"/>
	<path class="st1" d="M329.18,669.92c0,0-2.85,54.98,16.25,54.98s-57.24,0-44.52,0S329.18,669.92,329.18,669.92z"/>
	<path class="st1" d="M263.95,669.92c0,0,9.16,54.98,28.27,54.98s-49.82,0-37.11,0S263.95,669.92,263.95,669.92z"/>
	<path class="st1" d="M214.89,690.2l19.18,40.74c0,0-54.66,0-38.36,0S214.89,690.2,214.89,690.2z"/>
	<path class="st1" d="M190.85,690.2l19.18,40.74c0,0-54.66,0-38.36,0S190.85,690.2,190.85,690.2z"/>
	<path class="st1" d="M281.35,697.32l19.18,40.74c0,0-54.66,0-38.36,0S281.35,697.32,281.35,697.32z"/>
	<path class="st1" d="M268.62,697.32l19.18,40.74c0,0-54.66,0-38.36,0S268.62,697.32,268.62,697.32z"/>
	<path class="st1" d="M208.13,683.08c0,0-2.85,54.98,16.25,54.98s-57.24,0-44.52,0S208.13,683.08,208.13,683.08z"/>
	<path class="st1" d="M263.77,683.08c0,0-2.85,54.98,16.25,54.98s-57.24,0-44.52,0S263.77,683.08,263.77,683.08z"/>
	<path class="st1" d="M296.81,683.08c0,0-2.85,54.98,16.25,54.98s-57.24,0-44.52,0S296.81,683.08,296.81,683.08z"/>
	<path class="st1" d="M231.59,683.08c0,0,9.16,54.98,28.27,54.98s-49.82,0-37.11,0S231.59,683.08,231.59,683.08z"/>
	<path class="st1" d="M28.97,713.9L6.76,761.08c0,0,63.3,0,44.42,0S28.97,713.9,28.97,713.9z"/>
	<path class="st1" d="M99.02,697.41c0,0,3.31,63.67-18.82,63.67s66.29,0,51.56,0S99.02,697.41,99.02,697.41z"/>
	<path class="st1" d="M34.58,697.41c0,0,3.31,63.67-18.82,63.67s66.29,0,51.56,0S34.58,697.41,34.58,697.41z"/>
	<path class="st1" d="M71.85,697.41c0,0-10.61,63.67-32.74,63.67s57.7,0,42.97,0S71.85,697.41,71.85,697.41z"/>
	<path class="st1" d="M128.68,720.89l-22.21,47.18c0,0,63.3,0,44.42,0S128.68,720.89,128.68,720.89z"/>
	<path class="st1" d="M156.52,720.89l-22.21,47.18c0,0,63.3,0,44.42,0S156.52,720.89,156.52,720.89z"/>
	<path class="st1" d="M51.71,729.14L29.5,776.31c0,0,63.3,0,44.42,0S51.71,729.14,51.71,729.14z"/>
	<path class="st1" d="M66.45,729.14l-22.21,47.18c0,0,63.3,0,44.42,0S66.45,729.14,66.45,729.14z"/>
	<path class="st1" d="M136.5,712.65c0,0,3.31,63.67-18.82,63.67s66.29,0,51.56,0C154.51,776.31,136.5,712.65,136.5,712.65z"/>
	<path class="st1" d="M72.06,712.65c0,0,3.31,63.67-18.82,63.67s66.29,0,51.56,0S72.06,712.65,72.06,712.65z"/>
	<path class="st1" d="M33.8,712.65c0,0,3.31,63.67-18.82,63.67s66.29,0,51.56,0S33.8,712.65,33.8,712.65z"/>
	<path class="st1" d="M109.34,712.65c0,0-10.61,63.67-32.74,63.67s57.7,0,42.97,0S109.34,712.65,109.34,712.65z"/>
	<path class="st1" d="M43.64,759.04l-16.71,35.5c0,0,47.62,0,33.42,0S43.64,759.04,43.64,759.04z"/>
	<path class="st1" d="M64.58,759.04l-16.71,35.5c0,0,47.62,0,33.42,0S64.58,759.04,64.58,759.04z"/>
	<path class="st1" d="M49.52,752.84c0,0,2.49,47.9-14.16,47.9s49.88,0,38.8,0S49.52,752.84,49.52,752.84z"/>
	<path class="st1" d="M29.09,752.84c0,0-7.99,47.9-24.63,47.9s43.41,0,32.33,0S29.09,752.84,29.09,752.84z"/>
	<path class="st1" d="M71.84,770.5L55.13,806c0,0,47.62,0,33.42,0S71.84,770.5,71.84,770.5z"/>
	<path class="st1" d="M92.78,770.5L76.07,806c0,0,47.62,0,33.42,0S92.78,770.5,92.78,770.5z"/>
	<path class="st1" d="M13.93,776.71l-16.71,35.5c0,0,47.62,0,33.42,0S13.93,776.71,13.93,776.71z"/>
	<path class="st1" d="M25.02,776.71L8.31,812.2c0,0,47.62,0,33.42,0S25.02,776.71,25.02,776.71z"/>
	<path class="st1" d="M77.73,764.3c0,0,2.49,47.9-14.16,47.9s49.88,0,38.8,0S77.73,764.3,77.73,764.3z"/>
	<path class="st1" d="M29.24,764.3c0,0,2.49,47.9-14.16,47.9s49.88,0,38.8,0S29.24,764.3,29.24,764.3z"/>
	<path class="st1" d="M57.29,764.3c0,0-7.99,47.9-24.63,47.9s43.41,0,32.33,0S57.29,764.3,57.29,764.3z"/>
	<path class="st1" d="M164.96,759.99l16.71,35.5c0,0-47.62,0-33.42,0C162.46,795.48,164.96,759.99,164.96,759.99z"/>
	<path class="st1" d="M144.02,759.99l16.71,35.5c0,0-47.62,0-33.42,0S144.02,759.99,144.02,759.99z"/>
	<path class="st1" d="M222.87,766.19l16.71,35.5c0,0-47.62,0-33.42,0C220.37,801.69,222.87,766.19,222.87,766.19z"/>
	<path class="st1" d="M211.78,766.19l16.71,35.5c0,0-47.62,0-33.42,0S211.78,766.19,211.78,766.19z"/>
	<path class="st1" d="M159.08,753.78c0,0-2.49,47.9,14.16,47.9s-49.88,0-38.8,0C145.52,801.69,159.08,753.78,159.08,753.78z"/>
	<path class="st1" d="M207.56,753.78c0,0-2.49,47.9,14.16,47.9s-49.88,0-38.8,0C194.01,801.69,207.56,753.78,207.56,753.78z"/>
	<path class="st1" d="M236.35,753.78c0,0-2.49,47.9,14.16,47.9c16.65,0-49.88,0-38.8,0C222.8,801.69,236.35,753.78,236.35,753.78z"
		/>
	<path class="st1" d="M179.52,753.78c0,0,7.99,47.9,24.63,47.9s-43.41,0-32.33,0C182.9,801.69,179.52,753.78,179.52,753.78z"/>
	<path class="st1" d="M136.76,771.45l16.71,35.5c0,0-47.62,0-33.42,0S136.76,771.45,136.76,771.45z"/>
	<path class="st1" d="M115.82,771.45l16.71,35.5c0,0-47.62,0-33.42,0S115.82,771.45,115.82,771.45z"/>
	<path class="st1" d="M194.67,777.65l16.71,35.5c0,0-47.62,0-33.42,0C192.16,813.15,194.67,777.65,194.67,777.65z"/>
	<path class="st1" d="M183.58,777.65l16.71,35.5c0,0-47.62,0-33.42,0S183.58,777.65,183.58,777.65z"/>
	<path class="st1" d="M130.88,765.24c0,0-2.49,47.9,14.16,47.9s-49.88,0-38.8,0S130.88,765.24,130.88,765.24z"/>
	<path class="st1" d="M179.36,765.24c0,0-2.49,47.9,14.16,47.9s-49.88,0-38.8,0C165.81,813.15,179.36,765.24,179.36,765.24z"/>
	<path class="st1" d="M208.15,765.24c0,0-2.49,47.9,14.16,47.9s-49.88,0-38.8,0C194.59,813.15,208.15,765.24,208.15,765.24z"/>
	<path class="st1" d="M151.31,765.24c0,0,7.99,47.9,24.63,47.9s-43.41,0-32.33,0C154.7,813.15,151.31,765.24,151.31,765.24z"/>
	<path class="st1" d="M448.08,572.08l-23.79,50.55c0,0,67.81,0,47.59,0C451.65,622.63,448.08,572.08,448.08,572.08z"/>
	<path class="st1" d="M477.9,572.08l-23.79,50.55c0,0,67.81,0,47.59,0S477.9,572.08,477.9,572.08z"/>
	<path class="st1" d="M365.62,580.91l-23.79,50.55c0,0,67.81,0,47.59,0C369.19,631.46,365.62,580.91,365.62,580.91z"/>
	<path class="st1" d="M381.41,580.91l-23.79,50.55c0,0,67.81,0,47.59,0C384.98,631.46,381.41,580.91,381.41,580.91z"/>
	<path class="st1" d="M456.46,563.25c0,0,3.54,68.21-20.16,68.21c-23.71,0,71.02,0,55.24,0
		C475.76,631.46,456.46,563.25,456.46,563.25z"/>
	<path class="st1" d="M387.42,563.25c0,0,3.54,68.21-20.16,68.21s71.02,0,55.24,0S387.42,563.25,387.42,563.25z"/>
	<path class="st1" d="M427.36,563.25c0,0-11.37,68.21-35.08,68.21c-23.71,0,61.82,0,46.04,0S427.36,563.25,427.36,563.25z"/>
	<path class="st1" d="M488.24,588.4l-23.79,50.55c0,0,67.81,0,47.59,0C491.81,638.95,488.24,588.4,488.24,588.4z"/>
	<path class="st1" d="M518.06,588.4l-23.79,50.55c0,0,67.81,0,47.59,0S518.06,588.4,518.06,588.4z"/>
	<path class="st1" d="M405.78,597.23l-23.79,50.55c0,0,67.81,0,47.59,0C409.35,647.78,405.78,597.23,405.78,597.23z"/>
	<path class="st1" d="M421.57,597.23l-23.79,50.55c0,0,67.81,0,47.59,0C425.14,647.78,421.57,597.23,421.57,597.23z"/>
	<path class="st1" d="M496.62,579.57c0,0,3.54,68.21-20.16,68.21c-23.71,0,71.02,0,55.24,0S496.62,579.57,496.62,579.57z"/>
	<path class="st1" d="M427.58,579.57c0,0,3.54,68.21-20.16,68.21c-23.71,0,71.02,0,55.24,0S427.58,579.57,427.58,579.57z"/>
	<path class="st1" d="M386.59,579.57c0,0,3.54,68.21-20.16,68.21s71.02,0,55.24,0S386.59,579.57,386.59,579.57z"/>
	<path class="st1" d="M467.52,579.57c0,0-11.37,68.21-35.08,68.21s61.82,0,46.04,0S467.52,579.57,467.52,579.57z"/>
	<path class="st1" d="M620.84,573.43l23.79,50.55c0,0-67.81,0-47.59,0C617.27,623.97,620.84,573.43,620.84,573.43z"/>
	<path class="st1" d="M591.02,573.43l23.79,50.55c0,0-67.81,0-47.59,0C587.45,623.97,591.02,573.43,591.02,573.43z"/>
	<path class="st1" d="M703.3,582.26l23.79,50.55c0,0-67.81,0-47.59,0C699.73,632.81,703.3,582.26,703.3,582.26z"/>
	<path class="st1" d="M687.51,582.26l23.79,50.55c0,0-67.81,0-47.59,0S687.51,582.26,687.51,582.26z"/>
	<path class="st1" d="M612.46,564.59c0,0-3.54,68.21,20.16,68.21s-71.02,0-55.24,0S612.46,564.59,612.46,564.59z"/>
	<path class="st1" d="M681.5,564.59c0,0-3.54,68.21,20.16,68.21s-71.02,0-55.24,0S681.5,564.59,681.5,564.59z"/>
	<path class="st1" d="M722.49,564.59c0,0-3.54,68.21,20.16,68.21s-71.02,0-55.24,0C703.19,632.81,722.49,564.59,722.49,564.59z"/>
	<path class="st1" d="M641.56,564.59c0,0,11.37,68.21,35.08,68.21c23.71,0-61.82,0-46.04,0S641.56,564.59,641.56,564.59z"/>
	<path class="st1" d="M580.68,589.75l23.79,50.55c0,0-67.81,0-47.59,0C577.11,640.29,580.68,589.75,580.68,589.75z"/>
	<path class="st1" d="M550.86,589.75l23.79,50.55c0,0-67.81,0-47.59,0C547.29,640.29,550.86,589.75,550.86,589.75z"/>
	<path class="st1" d="M663.14,598.58l23.79,50.55c0,0-67.81,0-47.59,0S663.14,598.58,663.14,598.58z"/>
	<path class="st1" d="M647.35,598.58l23.79,50.55c0,0-67.81,0-47.59,0C643.78,649.13,647.35,598.58,647.35,598.58z"/>
	<path class="st1" d="M572.3,580.91c0,0-3.54,68.21,20.16,68.21c23.71,0-71.02,0-55.24,0S572.3,580.91,572.3,580.91z"/>
	<path class="st1" d="M641.34,580.91c0,0-3.54,68.21,20.16,68.21s-71.02,0-55.24,0S641.34,580.91,641.34,580.91z"/>
	<path class="st1" d="M682.33,580.91c0,0-3.54,68.21,20.16,68.21c23.71,0-71.02,0-55.24,0S682.33,580.91,682.33,580.91z"/>
	<path class="st1" d="M601.4,580.91c0,0,11.37,68.21,35.08,68.21s-61.82,0-46.04,0S601.4,580.91,601.4,580.91z"/>
	<path class="st1" d="M436.12,617.63l-25.49,54.15c0,0,72.64,0,50.98,0S436.12,617.63,436.12,617.63z"/>
	<path class="st1" d="M453.04,617.63l-25.49,54.15c0,0,72.64,0,50.98,0S453.04,617.63,453.04,617.63z"/>
	<path class="st1" d="M533.43,598.7c0,0,3.79,73.07-21.6,73.07c-25.39,0,76.08,0,59.18,0C554.1,671.77,533.43,598.7,533.43,598.7z"
		/>
	<path class="st1" d="M459.48,598.7c0,0,3.79,73.07-21.6,73.07s76.08,0,59.18,0S459.48,598.7,459.48,598.7z"/>
	<path class="st1" d="M415.57,598.7c0,0,3.79,73.07-21.6,73.07s76.08,0,59.18,0C436.24,671.77,415.57,598.7,415.57,598.7z"/>
	<path class="st1" d="M502.26,598.7c0,0-12.18,73.07-37.58,73.07c-25.39,0,66.22,0,49.32,0C497.1,671.77,502.26,598.7,502.26,598.7z
		"/>
	<path class="st1" d="M567.47,625.65l-25.49,54.15c0,0,72.64,0,50.98,0C571.29,679.79,567.47,625.65,567.47,625.65z"/>
	<path class="st1" d="M599.42,625.65l-25.49,54.15c0,0,72.64,0,50.98,0S599.42,625.65,599.42,625.65z"/>
	<path class="st1" d="M479.14,635.11l-25.49,54.15c0,0,72.64,0,50.98,0C482.97,689.25,479.14,635.11,479.14,635.11z"/>
	<path class="st1" d="M496.05,635.11l-25.49,54.15c0,0,72.64,0,50.98,0C499.88,689.25,496.05,635.11,496.05,635.11z"/>
	<path class="st1" d="M576.45,616.18c0,0,3.79,73.07-21.6,73.07c-25.39,0,76.08,0,59.18,0S576.45,616.18,576.45,616.18z"/>
	<path class="st1" d="M502.49,616.18c0,0,3.79,73.07-21.6,73.07c-25.39,0,76.08,0,59.18,0
		C523.17,689.25,502.49,616.18,502.49,616.18z"/>
	<path class="st1" d="M458.59,616.18c0,0,3.79,73.07-21.6,73.07c-25.39,0,76.08,0,59.18,0
		C479.26,689.25,458.59,616.18,458.59,616.18z"/>
	<path class="st1" d="M545.28,616.18c0,0-12.18,73.07-37.58,73.07c-25.39,0,66.22,0,49.32,0S545.28,616.18,545.28,616.18z"/>
	<path class="st1" d="M469.87,669.43l-19.18,40.74c0,0,54.66,0,38.36,0S469.87,669.43,469.87,669.43z"/>
	<path class="st1" d="M493.91,669.43l-19.18,40.74c0,0,54.66,0,38.36,0C496.79,710.17,493.91,669.43,493.91,669.43z"/>
	<path class="st1" d="M403.41,676.55l-19.18,40.74c0,0,54.66,0,38.36,0S403.41,676.55,403.41,676.55z"/>
	<path class="st1" d="M416.14,676.55l-19.18,40.74c0,0,54.66,0,38.36,0C419.02,717.29,416.14,676.55,416.14,676.55z"/>
	<path class="st1" d="M476.63,662.31c0,0,2.85,54.98-16.25,54.98s57.24,0,44.52,0C492.18,717.29,476.63,662.31,476.63,662.31z"/>
	<path class="st1" d="M420.99,662.31c0,0,2.85,54.98-16.25,54.98s57.24,0,44.52,0S420.99,662.31,420.99,662.31z"/>
	<path class="st1" d="M387.95,662.31c0,0,2.85,54.98-16.25,54.98s57.24,0,44.52,0S387.95,662.31,387.95,662.31z"/>
	<path class="st1" d="M453.17,662.31c0,0-9.16,54.98-28.27,54.98c-19.11,0,49.82,0,37.11,0S453.17,662.31,453.17,662.31z"/>
	<path class="st1" d="M502.24,682.58l-19.18,40.74c0,0,54.66,0,38.36,0C505.12,723.32,502.24,682.58,502.24,682.58z"/>
	<path class="st1" d="M526.28,682.58l-19.18,40.74c0,0,54.66,0,38.36,0C529.16,723.32,526.28,682.58,526.28,682.58z"/>
	<path class="st1" d="M435.78,689.7l-19.18,40.74c0,0,54.66,0,38.36,0S435.78,689.7,435.78,689.7z"/>
	<path class="st1" d="M448.51,689.7l-19.18,40.74c0,0,54.66,0,38.36,0C451.38,730.44,448.51,689.7,448.51,689.7z"/>
	<path class="st1" d="M509,675.46c0,0,2.85,54.98-16.25,54.98s57.24,0,44.52,0S509,675.46,509,675.46z"/>
	<path class="st1" d="M453.35,675.46c0,0,2.85,54.98-16.25,54.98s57.24,0,44.52,0S453.35,675.46,453.35,675.46z"/>
	<path class="st1" d="M420.32,675.46c0,0,2.85,54.98-16.25,54.98c-19.11,0,57.24,0,44.52,0S420.32,675.46,420.32,675.46z"/>
	<path class="st1" d="M485.54,675.46c0,0-9.16,54.98-28.27,54.98c-19.11,0,49.82,0,37.11,0S485.54,675.46,485.54,675.46z"/>
	<path class="st1" d="M609.12,670.51l19.18,40.74c0,0-54.66,0-38.36,0C606.24,711.25,609.12,670.51,609.12,670.51z"/>
	<path class="st1" d="M585.08,670.51l19.18,40.74c0,0-54.66,0-38.36,0C582.2,711.25,585.08,670.51,585.08,670.51z"/>
	<path class="st1" d="M675.57,677.63l19.18,40.74c0,0-54.66,0-38.36,0C672.7,718.37,675.57,677.63,675.57,677.63z"/>
	<path class="st1" d="M662.85,677.63l19.18,40.74c0,0-54.66,0-38.36,0C659.97,718.37,662.85,677.63,662.85,677.63z"/>
	<path class="st1" d="M602.36,663.39c0,0-2.85,54.98,16.25,54.98s-57.24,0-44.52,0S602.36,663.39,602.36,663.39z"/>
	<path class="st1" d="M658,663.39c0,0-2.85,54.98,16.25,54.98c19.11,0-57.24,0-44.52,0S658,663.39,658,663.39z"/>
	<path class="st1" d="M691.04,663.39c0,0-2.85,54.98,16.25,54.98c19.11,0-57.24,0-44.52,0S691.04,663.39,691.04,663.39z"/>
	<path class="st1" d="M625.82,663.39c0,0,9.16,54.98,28.27,54.98c19.11,0-49.82,0-37.11,0S625.82,663.39,625.82,663.39z"/>
	<path class="st1" d="M576.75,683.67l19.18,40.74c0,0-54.66,0-38.36,0S576.75,683.67,576.75,683.67z"/>
	<path class="st1" d="M552.71,683.67l19.18,40.74c0,0-54.66,0-38.36,0C549.83,724.41,552.71,683.67,552.71,683.67z"/>
	<path class="st1" d="M643.21,690.79l19.18,40.74c0,0-54.66,0-38.36,0S643.21,690.79,643.21,690.79z"/>
	<path class="st1" d="M630.48,690.79l19.18,40.74c0,0-54.66,0-38.36,0C627.6,731.53,630.48,690.79,630.48,690.79z"/>
	<path class="st1" d="M569.99,676.55c0,0-2.85,54.98,16.25,54.98s-57.24,0-44.52,0S569.99,676.55,569.99,676.55z"/>
	<path class="st1" d="M625.64,676.55c0,0-2.85,54.98,16.25,54.98c19.11,0-57.24,0-44.52,0S625.64,676.55,625.64,676.55z"/>
	<path class="st1" d="M658.67,676.55c0,0-2.85,54.98,16.25,54.98c19.11,0-57.24,0-44.52,0S658.67,676.55,658.67,676.55z"/>
	<path class="st1" d="M593.45,676.55c0,0,9.16,54.98,28.27,54.98c19.11,0-49.82,0-37.11,0S593.45,676.55,593.45,676.55z"/>
	<path class="st1" d="M376.09,707.37l-22.21,47.18c0,0,63.3,0,44.42,0S376.09,707.37,376.09,707.37z"/>
	<path class="st1" d="M390.83,707.37l-22.21,47.18c0,0,63.3,0,44.42,0S390.83,707.37,390.83,707.37z"/>
	<path class="st1" d="M460.88,690.88c0,0,3.31,63.67-18.82,63.67c-22.13,0,66.29,0,51.56,0S460.88,690.88,460.88,690.88z"/>
	<path class="st1" d="M396.44,690.88c0,0,3.31,63.67-18.82,63.67c-22.13,0,66.29,0,51.56,0S396.44,690.88,396.44,690.88z"/>
	<path class="st1" d="M358.18,690.88c0,0,3.31,63.67-18.82,63.67c-22.13,0,66.29,0,51.56,0S358.18,690.88,358.18,690.88z"/>
	<path class="st1" d="M433.72,690.88c0,0-10.61,63.67-32.74,63.67c-22.13,0,57.7,0,42.97,0S433.72,690.88,433.72,690.88z"/>
	<path class="st1" d="M490.54,714.36l-22.21,47.18c0,0,63.3,0,44.42,0C493.87,761.54,490.54,714.36,490.54,714.36z"/>
	<path class="st1" d="M518.38,714.36l-22.21,47.18c0,0,63.3,0,44.42,0S518.38,714.36,518.38,714.36z"/>
	<path class="st1" d="M413.57,722.61l-22.21,47.18c0,0,63.3,0,44.42,0S413.57,722.61,413.57,722.61z"/>
	<path class="st1" d="M428.31,722.61l-22.21,47.18c0,0,63.3,0,44.42,0S428.31,722.61,428.31,722.61z"/>
	<path class="st1" d="M498.36,706.12c0,0,3.31,63.67-18.82,63.67c-22.13,0,66.29,0,51.56,0S498.36,706.12,498.36,706.12z"/>
	<path class="st1" d="M433.92,706.12c0,0,3.31,63.67-18.82,63.67c-22.13,0,66.29,0,51.56,0S433.92,706.12,433.92,706.12z"/>
	<path class="st1" d="M395.66,706.12c0,0,3.31,63.67-18.82,63.67c-22.13,0,66.29,0,51.56,0
		C413.68,769.79,395.66,706.12,395.66,706.12z"/>
	<path class="st1" d="M471.2,706.12c0,0-10.61,63.67-32.74,63.67c-22.13,0,57.7,0,42.97,0C466.7,769.79,471.2,706.12,471.2,706.12z"
		/>
	<path class="st1" d="M405.5,752.51l-16.71,35.5c0,0,47.62,0,33.42,0C408.01,788.01,405.5,752.51,405.5,752.51z"/>
	<path class="st1" d="M426.44,752.51l-16.71,35.5c0,0,47.62,0,33.42,0C428.95,788.01,426.44,752.51,426.44,752.51z"/>
	<path class="st1" d="M347.59,758.72l-16.71,35.5c0,0,47.62,0,33.42,0C350.1,794.21,347.59,758.72,347.59,758.72z"/>
	<path class="st1" d="M358.68,758.72l-16.71,35.5c0,0,47.62,0,33.42,0C361.19,794.21,358.68,758.72,358.68,758.72z"/>
	<path class="st1" d="M411.39,746.31c0,0,2.49,47.9-14.16,47.9s49.88,0,38.8,0C424.94,794.21,411.39,746.31,411.39,746.31z"/>
	<path class="st1" d="M362.9,746.31c0,0,2.49,47.9-14.16,47.9c-16.65,0,49.88,0,38.8,0S362.9,746.31,362.9,746.31z"/>
	<path class="st1" d="M334.11,746.31c0,0,2.49,47.9-14.16,47.9c-16.65,0,49.88,0,38.8,0C347.67,794.21,334.11,746.31,334.11,746.31z
		"/>
	<path class="st1" d="M390.95,746.31c0,0-7.99,47.9-24.63,47.9c-16.65,0,43.41,0,32.33,0S390.95,746.31,390.95,746.31z"/>
	<path class="st1" d="M433.7,763.97l-16.71,35.5c0,0,47.62,0,33.42,0C436.21,799.47,433.7,763.97,433.7,763.97z"/>
	<path class="st1" d="M454.65,763.97l-16.71,35.5c0,0,47.62,0,33.42,0C457.15,799.47,454.65,763.97,454.65,763.97z"/>
	<path class="st1" d="M375.79,770.18l-16.71,35.5c0,0,47.62,0,33.42,0C378.3,805.67,375.79,770.18,375.79,770.18z"/>
	<path class="st1" d="M386.88,770.18l-16.71,35.5c0,0,47.62,0,33.42,0S386.88,770.18,386.88,770.18z"/>
	<path class="st1" d="M439.59,757.77c0,0,2.49,47.9-14.16,47.9c-16.65,0,49.88,0,38.8,0S439.59,757.77,439.59,757.77z"/>
	<path class="st1" d="M391.1,757.77c0,0,2.49,47.9-14.16,47.9c-16.65,0,49.88,0,38.8,0S391.1,757.77,391.1,757.77z"/>
	<path class="st1" d="M362.32,757.77c0,0,2.49,47.9-14.16,47.9c-16.65,0,49.88,0,38.8,0S362.32,757.77,362.32,757.77z"/>
	<path class="st1" d="M419.15,757.77c0,0-7.99,47.9-24.63,47.9s43.41,0,32.33,0S419.15,757.77,419.15,757.77z"/>
	<path class="st1" d="M526.83,753.46l16.71,35.5c0,0-47.62,0-33.42,0S526.83,753.46,526.83,753.46z"/>
	<path class="st1" d="M505.88,753.46l16.71,35.5c0,0-47.62,0-33.42,0S505.88,753.46,505.88,753.46z"/>
	<path class="st1" d="M584.73,759.66l16.71,35.5c0,0-47.62,0-33.42,0C582.23,795.16,584.73,759.66,584.73,759.66z"/>
	<path class="st1" d="M573.65,759.66l16.71,35.5c0,0-47.62,0-33.42,0S573.65,759.66,573.65,759.66z"/>
	<path class="st1" d="M520.94,747.26c0,0-2.49,47.9,14.16,47.9s-49.88,0-38.8,0S520.94,747.26,520.94,747.26z"/>
	<path class="st1" d="M569.42,747.26c0,0-2.49,47.9,14.16,47.9c16.65,0-49.88,0-38.8,0C555.87,795.16,569.42,747.26,569.42,747.26z"
		/>
	<path class="st1" d="M598.21,747.26c0,0-2.49,47.9,14.16,47.9s-49.88,0-38.8,0S598.21,747.26,598.21,747.26z"/>
	<path class="st1" d="M541.38,747.26c0,0,7.99,47.9,24.63,47.9c16.65,0-43.41,0-32.33,0C544.76,795.16,541.38,747.26,541.38,747.26z
		"/>
	<path class="st1" d="M498.62,764.92l16.71,35.5c0,0-47.62,0-33.42,0C496.12,800.42,498.62,764.92,498.62,764.92z"/>
	<path class="st1" d="M477.68,764.92l16.71,35.5c0,0-47.62,0-33.42,0S477.68,764.92,477.68,764.92z"/>
	<path class="st1" d="M556.53,771.12l16.71,35.5c0,0-47.62,0-33.42,0C554.03,806.62,556.53,771.12,556.53,771.12z"/>
	<path class="st1" d="M545.44,771.12l16.71,35.5c0,0-47.62,0-33.42,0S545.44,771.12,545.44,771.12z"/>
	<path class="st1" d="M492.74,758.72c0,0-2.49,47.9,14.16,47.9c16.65,0-49.88,0-38.8,0S492.74,758.72,492.74,758.72z"/>
	<path class="st1" d="M541.22,758.72c0,0-2.49,47.9,14.16,47.9c16.65,0-49.88,0-38.8,0C527.67,806.62,541.22,758.72,541.22,758.72z"
		/>
	<path class="st1" d="M570.01,758.72c0,0-2.49,47.9,14.16,47.9s-49.88,0-38.8,0C556.46,806.62,570.01,758.72,570.01,758.72z"/>
	<path class="st1" d="M513.18,758.72c0,0,7.99,47.9,24.63,47.9s-43.41,0-32.33,0C516.56,806.62,513.18,758.72,513.18,758.72z"/>
	<path class="st1" d="M811.34,575.73l-23.79,50.55c0,0,67.81,0,47.59,0S811.34,575.73,811.34,575.73z"/>
	<path class="st1" d="M841.16,575.73l-23.79,50.55c0,0,67.81,0,47.59,0S841.16,575.73,841.16,575.73z"/>
	<path class="st1" d="M728.88,584.57l-23.79,50.55c0,0,67.81,0,47.59,0S728.88,584.57,728.88,584.57z"/>
	<path class="st1" d="M744.67,584.57l-23.79,50.55c0,0,67.81,0,47.59,0S744.67,584.57,744.67,584.57z"/>
	<path class="st1" d="M819.72,566.9c0,0,3.54,68.21-20.16,68.21s71.02,0,55.24,0S819.72,566.9,819.72,566.9z"/>
	<path class="st1" d="M750.68,566.9c0,0,3.54,68.21-20.16,68.21c-23.71,0,71.02,0,55.24,0S750.68,566.9,750.68,566.9z"/>
	<path class="st1" d="M709.69,566.9c0,0,3.54,68.21-20.16,68.21s71.02,0,55.24,0S709.69,566.9,709.69,566.9z"/>
	<path class="st1" d="M790.62,566.9c0,0-11.37,68.21-35.08,68.21s61.82,0,46.04,0S790.62,566.9,790.62,566.9z"/>
	<path class="st1" d="M851.49,592.05L827.7,642.6c0,0,67.81,0,47.59,0C855.06,642.6,851.49,592.05,851.49,592.05z"/>
	<path class="st1" d="M852.32,592.05l-23.79,50.55c0,0,67.81,0,47.59,0C855.89,642.6,852.32,592.05,852.32,592.05z"/>
	<path class="st1" d="M769.04,600.89l-23.79,50.55c0,0,67.81,0,47.59,0C772.61,651.43,769.04,600.89,769.04,600.89z"/>
	<path class="st1" d="M784.83,600.89l-23.79,50.55c0,0,67.81,0,47.59,0C788.4,651.43,784.83,600.89,784.83,600.89z"/>
	<path class="st1" d="M830.88,583.22c0,0,3.54,68.21-20.16,68.21s71.02,0,55.24,0S830.88,583.22,830.88,583.22z"/>
	<path class="st1" d="M790.84,583.22c0,0,3.54,68.21-20.16,68.21s71.02,0,55.24,0C810.14,651.43,790.84,583.22,790.84,583.22z"/>
	<path class="st1" d="M749.85,583.22c0,0,3.54,68.21-20.16,68.21s71.02,0,55.24,0S749.85,583.22,749.85,583.22z"/>
	<path class="st1" d="M830.77,583.22c0,0-11.37,68.21-35.08,68.21s61.82,0,46.04,0S830.77,583.22,830.77,583.22z"/>
	<path class="st1" d="M955.1,577.08l23.79,50.55c0,0-67.81,0-47.59,0C951.53,627.63,955.1,577.08,955.1,577.08z"/>
	<path class="st1" d="M925.27,577.08l23.79,50.55c0,0-67.81,0-47.59,0S925.27,577.08,925.27,577.08z"/>
	<path class="st1" d="M946.72,568.25c0,0-3.54,68.21,20.16,68.21c23.71,0-71.02,0-55.24,0S946.72,568.25,946.72,568.25z"/>
	<path class="st1" d="M914.94,593.4l23.79,50.55c0,0-67.81,0-47.59,0S914.94,593.4,914.94,593.4z"/>
	<path class="st1" d="M885.12,593.4l23.79,50.55c0,0-67.81,0-47.59,0S885.12,593.4,885.12,593.4z"/>
	<path class="st1" d="M981.61,586.96l23.79,50.55c0,0-67.81,0-47.59,0S981.61,586.96,981.61,586.96z"/>
	<path class="st1" d="M906.56,584.57c0,0-3.54,68.21,20.16,68.21s-71.02,0-55.24,0C887.26,652.78,906.56,584.57,906.56,584.57z"/>
	<path class="st1" d="M975.6,584.57c0,0-3.54,68.21,20.16,68.21c23.71,0-71.02,0-55.24,0S975.6,584.57,975.6,584.57z"/>
	<path class="st1" d="M935.66,584.57c0,0,11.37,68.21,35.08,68.21s-61.82,0-46.04,0S935.66,584.57,935.66,584.57z"/>
	<path class="st1" d="M799.38,621.28l-25.49,54.15c0,0,72.64,0,50.98,0S799.38,621.28,799.38,621.28z"/>
	<path class="st1" d="M816.29,621.28l-25.49,54.15c0,0,72.64,0,50.98,0C820.12,675.42,816.29,621.28,816.29,621.28z"/>
	<path class="st1" d="M867.69,602.35c0,0,3.79,73.07-21.6,73.07c-25.39,0,76.08,0,59.18,0S867.69,602.35,867.69,602.35z"/>
	<path class="st1" d="M822.73,602.35c0,0,3.79,73.07-21.6,73.07c-25.39,0,76.08,0,59.18,0
		C843.41,675.42,822.73,602.35,822.73,602.35z"/>
	<path class="st1" d="M778.82,602.35c0,0,3.79,73.07-21.6,73.07c-25.39,0,76.08,0,59.18,0C799.5,675.42,778.82,602.35,778.82,602.35
		z"/>
	<path class="st1" d="M865.51,602.35c0,0-12.18,73.07-37.58,73.07c-25.39,0,66.22,0,49.32,0S865.51,602.35,865.51,602.35z"/>
	<path class="st1" d="M901.73,629.3l-25.49,54.15c0,0,72.64,0,50.98,0S901.73,629.3,901.73,629.3z"/>
	<path class="st1" d="M933.68,629.3l-25.49,54.15c0,0,72.64,0,50.98,0C937.5,683.44,933.68,629.3,933.68,629.3z"/>
	<path class="st1" d="M842.4,638.76l-25.49,54.15c0,0,72.64,0,50.98,0S842.4,638.76,842.4,638.76z"/>
	<path class="st1" d="M830.31,638.76l-25.49,54.15c0,0,72.64,0,50.98,0S830.31,638.76,830.31,638.76z"/>
	<path class="st1" d="M910.71,619.84c0,0,3.79,73.07-21.6,73.07c-25.39,0,76.08,0,59.18,0
		C931.38,692.91,910.71,619.84,910.71,619.84z"/>
	<path class="st1" d="M836.75,619.84c0,0,3.79,73.07-21.6,73.07c-25.39,0,76.08,0,59.18,0S836.75,619.84,836.75,619.84z"/>
	<path class="st1" d="M821.84,619.84c0,0,3.79,73.07-21.6,73.07c-25.39,0,76.08,0,59.18,0S821.84,619.84,821.84,619.84z"/>
	<path class="st1" d="M879.53,619.84c0,0-12.18,73.07-37.58,73.07c-25.39,0,66.22,0,49.32,0S879.53,619.84,879.53,619.84z"/>
	<path class="st1" d="M833.13,673.08l-19.18,40.74c0,0,54.66,0,38.36,0S833.13,673.08,833.13,673.08z"/>
	<path class="st1" d="M857.17,673.08l-19.18,40.74c0,0,54.66,0,38.36,0C860.05,713.82,857.17,673.08,857.17,673.08z"/>
	<path class="st1" d="M766.67,680.2l-19.18,40.74c0,0,54.66,0,38.36,0S766.67,680.2,766.67,680.2z"/>
	<path class="st1" d="M779.4,680.2l-19.18,40.74c0,0,54.66,0,38.36,0C782.27,720.94,779.4,680.2,779.4,680.2z"/>
	<path class="st1" d="M839.89,665.96c0,0,2.85,54.98-16.25,54.98c-19.11,0,57.24,0,44.52,0S839.89,665.96,839.89,665.96z"/>
	<path class="st1" d="M784.24,665.96c0,0,2.85,54.98-16.25,54.98c-19.11,0,57.24,0,44.52,0
		C799.8,720.94,784.24,665.96,784.24,665.96z"/>
	<path class="st1" d="M751.21,665.96c0,0,2.85,54.98-16.25,54.98c-19.11,0,57.24,0,44.52,0S751.21,665.96,751.21,665.96z"/>
	<path class="st1" d="M816.43,665.96c0,0-9.16,54.98-28.27,54.98c-19.11,0,49.82,0,37.11,0S816.43,665.96,816.43,665.96z"/>
	<path class="st1" d="M836.5,686.23l-19.18,40.74c0,0,54.66,0,38.36,0S836.5,686.23,836.5,686.23z"/>
	<path class="st1" d="M860.53,686.23l-19.18,40.74c0,0,54.66,0,38.36,0C863.41,726.97,860.53,686.23,860.53,686.23z"/>
	<path class="st1" d="M799.04,693.35l-19.18,40.74c0,0,54.66,0,38.36,0S799.04,693.35,799.04,693.35z"/>
	<path class="st1" d="M811.76,693.35l-19.18,40.74c0,0,54.66,0,38.36,0S811.76,693.35,811.76,693.35z"/>
	<path class="st1" d="M843.25,679.11c0,0,2.85,54.98-16.25,54.98c-19.11,0,57.24,0,44.52,0S843.25,679.11,843.25,679.11z"/>
	<path class="st1" d="M816.61,679.11c0,0,2.85,54.98-16.25,54.98c-19.11,0,57.24,0,44.52,0S816.61,679.11,816.61,679.11z"/>
	<path class="st1" d="M783.57,679.11c0,0,2.85,54.98-16.25,54.98c-19.11,0,57.24,0,44.52,0S783.57,679.11,783.57,679.11z"/>
	<path class="st1" d="M848.8,679.11c0,0-9.16,54.98-28.27,54.98c-19.11,0,49.82,0,37.11,0S848.8,679.11,848.8,679.11z"/>
	<path class="st1" d="M943.37,674.17l19.18,40.74c0,0-54.66,0-38.36,0C940.49,714.91,943.37,674.17,943.37,674.17z"/>
	<path class="st1" d="M919.33,674.17l19.18,40.74c0,0-54.66,0-38.36,0C916.46,714.91,919.33,674.17,919.33,674.17z"/>
	<path class="st1" d="M936.62,667.05c0,0-2.85,54.98,16.25,54.98c19.11,0-57.24,0-44.52,0S936.62,667.05,936.62,667.05z"/>
	<path class="st1" d="M992.26,667.05c0,0-2.85,54.98,16.25,54.98c19.11,0-57.24,0-44.52,0S992.26,667.05,992.26,667.05z"/>
	<path class="st1" d="M960.07,667.05c0,0,9.16,54.98,28.27,54.98c19.11,0-49.82,0-37.11,0S960.07,667.05,960.07,667.05z"/>
	<path class="st1" d="M911.01,687.32l19.18,40.74c0,0-54.66,0-38.36,0C908.13,728.06,911.01,687.32,911.01,687.32z"/>
	<path class="st1" d="M886.97,687.32l19.18,40.74c0,0-54.66,0-38.36,0C884.09,728.06,886.97,687.32,886.97,687.32z"/>
	<path class="st1" d="M977.46,694.44l19.18,40.74c0,0-54.66,0-38.36,0C974.59,735.18,977.46,694.44,977.46,694.44z"/>
	<path class="st1" d="M964.74,694.44l19.18,40.74c0,0-54.66,0-38.36,0C961.86,735.18,964.74,694.44,964.74,694.44z"/>
	<path class="st1" d="M904.25,680.2c0,0-2.85,54.98,16.25,54.98c19.11,0-57.24,0-44.52,0S904.25,680.2,904.25,680.2z"/>
	<path class="st1" d="M959.89,680.2c0,0-2.85,54.98,16.25,54.98c19.11,0-57.24,0-44.52,0S959.89,680.2,959.89,680.2z"/>
	<path class="st1" d="M927.71,680.2c0,0,9.16,54.98,28.27,54.98c19.11,0-49.82,0-37.11,0S927.71,680.2,927.71,680.2z"/>
	<path class="st1" d="M739.35,711.03l-22.21,47.18c0,0,63.3,0,44.42,0S739.35,711.03,739.35,711.03z"/>
	<path class="st1" d="M754.09,711.03l-22.21,47.18c0,0,63.3,0,44.42,0S754.09,711.03,754.09,711.03z"/>
	<path class="st1" d="M824.14,694.54c0,0,3.31,63.67-18.82,63.67c-22.13,0,66.29,0,51.56,0S824.14,694.54,824.14,694.54z"/>
	<path class="st1" d="M759.7,694.54c0,0,3.31,63.67-18.82,63.67s66.29,0,51.56,0S759.7,694.54,759.7,694.54z"/>
	<path class="st1" d="M721.44,694.54c0,0,3.31,63.67-18.82,63.67c-22.13,0,66.29,0,51.56,0S721.44,694.54,721.44,694.54z"/>
	<path class="st1" d="M796.97,694.54c0,0-10.61,63.67-32.74,63.67c-22.13,0,57.7,0,42.97,0S796.97,694.54,796.97,694.54z"/>
	<path class="st1" d="M853.8,718.01l-22.21,47.18c0,0,63.3,0,44.42,0S853.8,718.01,853.8,718.01z"/>
	<path class="st1" d="M852.63,718.01l-22.21,47.18c0,0,63.3,0,44.42,0S852.63,718.01,852.63,718.01z"/>
	<path class="st1" d="M776.83,726.26l-22.21,47.18c0,0,63.3,0,44.42,0S776.83,726.26,776.83,726.26z"/>
	<path class="st1" d="M791.57,726.26l-22.21,47.18c0,0,63.3,0,44.42,0S791.57,726.26,791.57,726.26z"/>
	<path class="st1" d="M861.62,709.77c0,0,3.31,63.67-18.82,63.67c-22.13,0,66.29,0,51.56,0S861.62,709.77,861.62,709.77z"/>
	<path class="st1" d="M797.18,709.77c0,0,3.31,63.67-18.82,63.67s66.29,0,51.56,0S797.18,709.77,797.18,709.77z"/>
	<path class="st1" d="M758.92,709.77c0,0,3.31,63.67-18.82,63.67c-22.13,0,66.29,0,51.56,0S758.92,709.77,758.92,709.77z"/>
	<path class="st1" d="M834.46,709.77c0,0-10.61,63.67-32.74,63.67c-22.13,0,57.7,0,42.97,0S834.46,709.77,834.46,709.77z"/>
	<path class="st1" d="M768.76,756.17l-16.71,35.5c0,0,47.62,0,33.42,0S768.76,756.17,768.76,756.17z"/>
	<path class="st1" d="M789.7,756.17l-16.71,35.5c0,0,47.62,0,33.42,0S789.7,756.17,789.7,756.17z"/>
	<path class="st1" d="M710.85,762.37l-16.71,35.5c0,0,47.62,0,33.42,0S710.85,762.37,710.85,762.37z"/>
	<path class="st1" d="M721.94,762.37l-16.71,35.5c0,0,47.62,0,33.42,0C724.44,797.87,721.94,762.37,721.94,762.37z"/>
	<path class="st1" d="M774.64,749.96c0,0,2.49,47.9-14.16,47.9s49.88,0,38.8,0C788.2,797.87,774.64,749.96,774.64,749.96z"/>
	<path class="st1" d="M726.16,749.96c0,0,2.49,47.9-14.16,47.9s49.88,0,38.8,0S726.16,749.96,726.16,749.96z"/>
	<path class="st1" d="M697.37,749.96c0,0,2.49,47.9-14.16,47.9s49.88,0,38.8,0C710.92,797.87,697.37,749.96,697.37,749.96z"/>
	<path class="st1" d="M754.2,749.96c0,0-7.99,47.9-24.63,47.9s43.41,0,32.33,0C750.82,797.87,754.2,749.96,754.2,749.96z"/>
	<path class="st1" d="M796.96,767.63l-16.71,35.5c0,0,47.62,0,33.42,0C799.46,803.12,796.96,767.63,796.96,767.63z"/>
	<path class="st1" d="M817.9,767.63l-16.71,35.5c0,0,47.62,0,33.42,0S817.9,767.63,817.9,767.63z"/>
	<path class="st1" d="M739.05,773.83l-16.71,35.5c0,0,47.62,0,33.42,0S739.05,773.83,739.05,773.83z"/>
	<path class="st1" d="M750.14,773.83l-16.71,35.5c0,0,47.62,0,33.42,0C752.65,809.33,750.14,773.83,750.14,773.83z"/>
	<path class="st1" d="M802.84,761.42c0,0,2.49,47.9-14.16,47.9s49.88,0,38.8,0C816.4,809.33,802.84,761.42,802.84,761.42z"/>
	<path class="st1" d="M754.36,761.42c0,0,2.49,47.9-14.16,47.9s49.88,0,38.8,0C767.91,809.33,754.36,761.42,754.36,761.42z"/>
	<path class="st1" d="M725.57,761.42c0,0,2.49,47.9-14.16,47.9c-16.65,0,49.88,0,38.8,0C739.13,809.33,725.57,761.42,725.57,761.42z
		"/>
	<path class="st1" d="M782.41,761.42c0,0-7.99,47.9-24.63,47.9s43.41,0,32.33,0C779.02,809.33,782.41,761.42,782.41,761.42z"/>
	<path class="st1" d="M890.08,757.11l16.71,35.5c0,0-47.62,0-33.42,0S890.08,757.11,890.08,757.11z"/>
	<path class="st1" d="M869.14,757.11l16.71,35.5c0,0-47.62,0-33.42,0S869.14,757.11,869.14,757.11z"/>
	<path class="st1" d="M947.99,763.32l16.71,35.5c0,0-47.62,0-33.42,0S947.99,763.32,947.99,763.32z"/>
	<path class="st1" d="M936.9,763.32l16.71,35.5c0,0-47.62,0-33.42,0C934.4,798.81,936.9,763.32,936.9,763.32z"/>
	<path class="st1" d="M884.2,750.91c0,0-2.49,47.9,14.16,47.9s-49.88,0-38.8,0C870.64,798.81,884.2,750.91,884.2,750.91z"/>
	<path class="st1" d="M932.68,750.91c0,0-2.49,47.9,14.16,47.9s-49.88,0-38.8,0S932.68,750.91,932.68,750.91z"/>
	<path class="st1" d="M961.47,750.91c0,0-2.49,47.9,14.16,47.9s-49.88,0-38.8,0C947.91,798.81,961.47,750.91,961.47,750.91z"/>
	<path class="st1" d="M904.63,750.91c0,0,7.99,47.9,24.63,47.9s-43.41,0-32.33,0C908.02,798.81,904.63,750.91,904.63,750.91z"/>
	<path class="st1" d="M861.88,768.57l16.71,35.5c0,0-47.62,0-33.42,0S861.88,768.57,861.88,768.57z"/>
	<path class="st1" d="M840.94,768.57l16.71,35.5c0,0-47.62,0-33.42,0S840.94,768.57,840.94,768.57z"/>
	<path class="st1" d="M919.79,774.78l16.71,35.5c0,0-47.62,0-33.42,0S919.79,774.78,919.79,774.78z"/>
	<path class="st1" d="M908.7,774.78l16.71,35.5c0,0-47.62,0-33.42,0C906.19,810.27,908.7,774.78,908.7,774.78z"/>
	<path class="st1" d="M855.99,762.37c0,0-2.49,47.9,14.16,47.9s-49.88,0-38.8,0C842.44,810.27,855.99,762.37,855.99,762.37z"/>
	<path class="st1" d="M904.48,762.37c0,0-2.49,47.9,14.16,47.9s-49.88,0-38.8,0C890.93,810.27,904.48,762.37,904.48,762.37z"/>
	<path class="st1" d="M933.26,762.37c0,0-2.49,47.9,14.16,47.9s-49.88,0-38.8,0C919.71,810.27,933.26,762.37,933.26,762.37z"/>
	<path class="st1" d="M876.43,762.37c0,0,7.99,47.9,24.63,47.9s-43.41,0-32.33,0C879.82,810.27,876.43,762.37,876.43,762.37z"/>
</g>
</svg>
