<?xml version="1.0" encoding="utf-8"?>
<!-- Generator: Adobe Illustrator 28.4.1, SVG Export Plug-In . SVG Version: 6.00 Build 0)  -->
<svg version="1.1" id="Camada_1" xmlns="http://www.w3.org/2000/svg" xmlns:xlink="http://www.w3.org/1999/xlink" x="0px" y="0px"
	 viewBox="0 0 500 500" style="enable-background:new 0 0 500 500;" xml:space="preserve">
<style type="text/css">
	.st0{fill:#4594D1;stroke:#4593D0;stroke-miterlimit:10;}
	.st1{fill:#FFFFFF;stroke:#FFFFFF;stroke-miterlimit:10;}
</style>
<rect class="st0" width="500" height="500"/>
<path class="st1" d="M577.3,31.6c2.8-2.9,4.4-6.2,4.4-9.7c0-11.1-15.8-20.2-35.4-20.2c-10.9,0-20.6,2.8-27.1,7.2
	c-4.2-1.4-8.9-2.2-13.8-2.2c-17.4,0-31.6,10-33,22.8c-23.9,4.3-41,15.7-41,29.2c0,17.1,27.6,30.9,61.6,30.9c22.4,0,42-6,52.8-15
	c8.3,1.8,17.9,2.8,28.1,2.8c32.4,0,58.6-10.3,58.6-22.9C632.5,42.2,608,32.3,577.3,31.6z"/>
<path class="st1" d="M51.3,453c2.1-2.2,3.3-4.6,3.3-7.2c0-8.3-11.8-15.1-26.4-15.1c-8.1,0-15.4,2.1-20.2,5.4
	c-3.1-1-6.6-1.6-10.3-1.6c-13,0-23.6,7.5-24.6,17c-17.8,3.2-30.6,11.7-30.6,21.8c0,12.8,20.6,23.1,46,23.1
	c16.7,0,31.4-4.5,39.4-11.2c6.2,1.3,13.4,2.1,21,2.1c24.2,0,43.7-7.7,43.7-17.1C92.5,460.9,74.2,453.5,51.3,453z"/>
<path class="st1" d="M562.8,453c2.1-2.2,3.3-4.6,3.3-7.2c0-8.3-11.8-15.1-26.4-15.1c-8.1,0-15.4,2.1-20.2,5.4
	c-3.1-1-6.6-1.6-10.3-1.6c-13,0-23.6,7.5-24.6,17c-17.8,3.2-30.6,11.7-30.6,21.8c0,12.8,20.6,23.1,46,23.1
	c16.7,0,31.4-4.5,39.4-11.2c6.2,1.3,13.4,2.1,21,2.1c24.2,0,43.7-7.7,43.7-17.1C604,460.9,585.7,453.5,562.8,453z"/>
<path class="st1" d="M73.3,31.6c2.8-2.9,4.4-6.2,4.4-9.7c0-11.1-15.8-20.2-35.4-20.2c-10.9,0-20.6,2.8-27.1,7.2
	C11,7.5,6.3,6.7,1.4,6.7c-17.4,0-31.6,10-33,22.8c-23.9,4.3-41,15.7-41,29.2c0,17.1,27.6,30.9,61.6,30.9c22.4,0,42-6,52.8-15
	c8.3,1.8,17.9,2.8,28.1,2.8c32.4,0,58.6-10.3,58.6-22.9C128.5,42.2,104,32.3,73.3,31.6z"/>
<path class="st1" d="M60.5,254.8h-0.1c0.8-2,1.2-4.1,1.2-6.4c0-10.8-10.3-19.6-22.9-19.6c-12.7,0-22.9,8.8-22.9,19.6
	c0,1.3,0.2,2.6,0.4,3.8c-5.9,3-9.8,7.8-9.8,13.3c0,8.9,10.5,16.3,23.2,16.3c4.6,0,8.8-0.9,12.4-2.6c5.2,1.6,11.6,2.6,18.5,2.6
	c17.4,0,31.5-6.1,31.5-13.5C92,260.9,77.9,254.8,60.5,254.8z"/>
<path class="st1" d="M242,157h-0.1c0.8-2,1.2-4.1,1.2-6.4c0-10.8-10.3-19.6-22.9-19.6s-22.9,8.8-22.9,19.6c0,1.3,0.1,2.6,0.4,3.8
	c-5.9,3-9.8,7.8-9.8,13.3c0,8.9,10.5,16.3,23.2,16.3c4.5,0,8.8-0.9,12.5-2.6c5.2,1.6,11.6,2.6,18.5,2.6c17.4,0,31.5-6.1,31.5-13.5
	C273.5,163,259.4,157,242,157z"/>
<path class="st1" d="M399.2,333.2h-0.1c0.8-2,1.2-4.1,1.2-6.4c0-10.8-10.3-19.6-22.9-19.6s-22.9,8.8-22.9,19.6
	c0,1.3,0.1,2.6,0.4,3.8c-5.9,3-9.8,7.8-9.8,13.3c0,8.9,10.5,16.3,23.2,16.3c4.5,0,8.8-1,12.5-2.6c5.2,1.6,11.6,2.6,18.5,2.6
	c17.4,0,31.5-6.1,31.5-13.5C430.7,339.3,416.6,333.2,399.2,333.2z"/>
<path class="st1" d="M274.3,51.8h-0.1c0.8-2,1.2-4.1,1.2-6.4c0-10.8-10.3-19.6-22.9-19.6c-12.6,0-22.9,8.8-22.9,19.6
	c0,1.3,0.1,2.6,0.4,3.8c-5.9,3-9.8,7.8-9.8,13.3c0,8.9,10.5,16.3,23.2,16.3c4.5,0,8.8-0.9,12.5-2.6c5.2,1.6,11.6,2.6,18.5,2.6
	c17.4,0,31.5-6.1,31.5-13.5C305.7,57.8,291.6,51.8,274.3,51.8z"/>
<path class="st1" d="M291.6,237.7c-5.1,0-10.3,0.2-15.1,0.3c2.6-2.9,4.1-6,4.1-9.4c0-12.3-19.5-22.3-43.5-22.3s-43.5,9.9-43.5,22.3
	c0,2.6,0.9,5.1,2.6,7.4c-19.3,1.4-33.7,7-33.7,13.9c0,7.9,19.2,14.2,43,14.2c14,0,26.5-2.2,34.4-5.6c11.3,3.4,30.3,5.6,51.7,5.6
	c34.8,0,62.8-6,62.8-13.2C354.4,243.7,326.3,237.7,291.6,237.7z"/>
<path class="st1" d="M207.1,288.4c-3.1,0-6,0.1-8.8,0.2c1.5-1.7,2.4-3.5,2.4-5.5c0-7.2-11.4-13-25.4-13s-25.4,5.8-25.4,13
	c0,1.5,0.5,3,1.5,4.3c-11.3,0.8-19.7,4.1-19.7,8.1c0,4.6,11.2,8.3,25.1,8.3c8.2,0,15.5-1.3,20.1-3.3c6.6,2,17.7,3.3,30.2,3.3
	c20.3,0,36.7-3.5,36.7-7.7S227.4,288.4,207.1,288.4z"/>
<path class="st1" d="M407.3,23.7c-3,0-6,0.1-8.8,0.2c1.5-1.7,2.4-3.5,2.4-5.5c0-7.2-11.4-13-25.4-13s-25.4,5.8-25.4,13
	c0,1.5,0.5,3,1.5,4.3c-11.3,0.8-19.7,4.1-19.7,8.1c0,4.6,11.2,8.3,25.1,8.3c8.2,0,15.5-1.3,20.1-3.3c6.6,2,17.7,3.3,30.2,3.3
	c20.3,0,36.7-3.5,36.7-7.7S427.6,23.7,407.3,23.7z"/>
<path class="st1" d="M101.9,349.2c-3.1,0-6,0.1-8.9,0.4c0-0.1,0-0.2,0-0.4c0-10.7-10.6-19.3-23.8-19.3s-23.8,8.7-23.8,19.3
	c0,2.5,0.6,4.8,1.6,6.9c-12.1,2.2-20.4,7-20.4,12.4c0,7.6,16.3,13.8,36.5,13.8c11.8,0,22.3-2.1,29-5.4c3.1,0.3,6.4,0.5,9.7,0.5
	c21.4,0,38.7-6.3,38.7-14.1C140.6,355.5,123.3,349.2,101.9,349.2z"/>
<path class="st1" d="M249.1,386.5c-3,0-6,0.1-8.9,0.4c0-0.1,0-0.2,0-0.4c0-10.7-10.6-19.3-23.8-19.3s-23.8,8.7-23.8,19.3
	c0,2.5,0.6,4.8,1.6,6.9c-12.1,2.2-20.4,7-20.4,12.4c0,7.6,16.3,13.8,36.5,13.8c11.8,0,22.3-2.1,29-5.4c3.1,0.3,6.4,0.5,9.7,0.5
	c21.4,0,38.7-6.3,38.7-14.1C287.7,392.8,270.4,386.5,249.1,386.5z"/>
<path class="st1" d="M298.3,448c0.1-1,0.2-2.1,0.2-3.1c0-11.7-8.5-21.1-19.1-21.1c-9.7,0-17.7,8.1-18.9,18.4
	c-6.8,1.6-11.8,6.8-11.8,13c0,7.5,7.2,13.5,16,13.5c4,0,7.6-1.2,10.5-3.3c1.4,0.3,2.8,0.5,4.2,0.5c0.6,0,1.1,0,1.7-0.1
	c2.9,1.8,6.8,2.9,11,2.9c9,0,16.3-4.8,16.3-10.8C308.5,453.4,304.3,449.6,298.3,448z"/>
<path class="st1" d="M118.5,136.7c0.1-1,0.2-2.1,0.2-3.1c0-11.7-8.5-21.1-19.1-21.1c-9.7,0-17.7,8.1-18.9,18.5
	c-6.8,1.6-11.8,6.8-11.8,13c0,7.5,7.2,13.5,16,13.5c4,0,7.7-1.2,10.4-3.3c1.3,0.3,2.8,0.5,4.2,0.5c0.6,0,1.1,0,1.7-0.1
	c2.9,1.8,6.8,2.9,11,2.9c9,0,16.3-4.8,16.3-10.8C128.7,142.2,124.5,138.3,118.5,136.7z"/>
<path class="st1" d="M312.7,311.1c0.1-1,0.2-2.1,0.2-3.1c0-11.7-8.5-21.1-19.1-21.1c-9.7,0-17.7,8-18.9,18.5
	c-6.8,1.6-11.8,6.8-11.8,13c0,7.5,7.2,13.5,16,13.5c4,0,7.6-1.2,10.4-3.3c1.4,0.3,2.8,0.5,4.2,0.5c0.6,0,1.1,0,1.7-0.1
	c2.9,1.8,6.8,2.9,11,2.9c9,0,16.3-4.8,16.3-10.8C322.9,316.6,318.6,312.8,312.7,311.1z"/>
<path class="st1" d="M478.7,362.3c0.1-1,0.2-2.1,0.2-3.1c0-11.7-8.5-21.1-19.1-21.1c-9.7,0-17.7,8-18.9,18.5
	c-6.8,1.6-11.8,6.8-11.8,13c0,7.5,7.2,13.5,16,13.5c4,0,7.6-1.2,10.5-3.3c1.4,0.3,2.8,0.5,4.2,0.5c0.6,0,1.1,0,1.7-0.1
	c2.9,1.8,6.8,2.9,11,2.9c9,0,16.3-4.8,16.3-10.8C488.9,367.7,484.6,363.9,478.7,362.3z"/>
<path class="st1" d="M419.1,74.8c0.1-1,0.2-2.1,0.2-3.1c0-11.7-8.5-21.1-19.1-21.1c-9.7,0-17.7,8-18.9,18.4
	c-4.2-4.2-12.7-7.1-22.6-7.1c-14,0-25.4,5.8-25.4,13c0,1.5,0.5,3,1.5,4.3c-11.3,0.8-19.7,4.1-19.7,8.1c0,4.6,11.2,8.3,25.1,8.3
	c8.2,0,15.5-1.3,20.1-3.3c5.3,1.6,13.5,2.8,22.9,3.2c0.8,0.1,1.5,0.1,2.3,0.1c0.4,0,0.8,0,1.1,0c1.3,0,2.5,0,3.8,0
	c5.8,0,11.4-0.3,16.2-0.8c1.9,0.5,4,0.8,6.1,0.8c9,0,16.3-4.8,16.3-10.8C429.3,80.3,425,76.4,419.1,74.8z"/>
<path class="st1" d="M435,434.5c0.1-1,0.2-2.1,0.2-3.1c0-11.7-8.5-21.1-19.1-21.1c-9.7,0-17.7,8-18.9,18.4
	c-4.2-4.2-12.7-7.1-22.6-7.1c-14,0-25.4,5.8-25.4,13c0,1.5,0.5,3,1.5,4.3c-11.3,0.8-19.7,4.1-19.7,8.1c0,4.6,11.2,8.3,25.1,8.3
	c8.2,0,15.5-1.3,20.1-3.3c5.3,1.6,13.5,2.8,22.9,3.2c0.8,0.1,1.5,0.1,2.3,0.1c0.4,0,0.8,0,1.1,0c1.3,0,2.5,0,3.8,0
	c5.8,0,11.4-0.3,16.2-0.8c1.9,0.5,4,0.8,6.1,0.8c9,0,16.3-4.8,16.3-10.8C445.2,440,440.9,436.1,435,434.5z"/>
<path class="st1" d="M491,255.6c0.1-1,0.2-2.1,0.2-3.1c0-11.7-8.5-21.1-19.1-21.1c-9.7,0-17.7,8-18.9,18.4
	c-4.2-4.2-12.7-7.1-22.6-7.1c-14,0-25.4,5.8-25.4,13c0,1.5,0.5,3,1.5,4.3c-11.3,0.8-19.7,4.1-19.7,8.1c0,4.6,11.2,8.3,25.1,8.3
	c8.2,0,15.5-1.3,20.1-3.3c5.3,1.6,13.4,2.8,22.9,3.2c0.8,0.1,1.5,0.1,2.3,0.1c0.4,0,0.8,0,1.1,0c1.3,0,2.5,0,3.8,0
	c5.8,0,11.4-0.3,16.2-0.8c1.9,0.5,4,0.8,6.1,0.8c9,0,16.3-4.8,16.3-10.8C501.2,261,497,257.2,491,255.6z"/>
<path class="st1" d="M578.9,165.9c-3.3,0-6.6,0-9.8,0.1c6.9-3.3,11-7.3,11-11.8c0-10.6-23.4-19.2-52.3-19.2
	c-28.4,0-51.4,8.3-52.2,18.7c-6.8,4.8-11,11.7-11,19.3c0,14.6,15.5,26.4,34.6,26.4c8.2,0,15.7-2.2,21.7-5.8c14,3.6,34.8,5.8,58,5.8
	c42.2,0,76.4-7.5,76.4-16.8C655.3,173.4,621.1,165.9,578.9,165.9z"/>
<path class="st1" d="M398.7,175.2c-2.9,0-5.7,0-8.4,0.1c5.9-2.8,9.5-6.3,9.5-10.2c0-9.2-20.2-16.6-45.1-16.6
	c-24.5,0-44.4,7.2-45.1,16.1c-5.8,4.2-9.5,10.1-9.5,16.7c0,12.6,13.4,22.8,29.8,22.8c7.1,0,13.6-1.9,18.7-5c12.1,3.1,30,5,50,5
	c36.4,0,65.9-6.5,65.9-14.5C464.6,181.7,435.1,175.2,398.7,175.2z"/>
<path class="st1" d="M56.6,170.2c-3.3,0-6.6,0-9.8,0.1c6.9-3.3,11-7.3,11-11.8c0-10.6-23.4-19.2-52.3-19.2
	c-28.4,0-51.4,8.3-52.2,18.7c-6.8,4.8-11,11.7-11,19.3c0,14.6,15.5,26.4,34.6,26.4c8.2,0,15.7-2.2,21.7-5.8c14,3.6,34.8,5.8,58,5.8
	c42.2,0,76.4-7.5,76.4-16.8C133,177.7,98.8,170.2,56.6,170.2z"/>
</svg>
